<?xml version="1.0" encoding="UTF-8" standalone="no"?>
<!-- Created with Friction - https://friction.graphics -->
<svg viewBox="0 0 512 512" xmlns="http://www.w3.org/2000/svg" xmlns:xlink="http://www.w3.org/1999/xlink">
 <g transform="translate(188.639 626.792)">
  <g transform="translate(78.4597 -168.564)">
   <g transform="rotate(0)">
    <g transform="scale(0.728231 0.728231)">
     <g transform="skewX(0) skewY(0)">
      <g opacity="1" transform="translate(-188.639 -626.792)">
       <ellipse rx="104.8" cy="626.792" stroke-width="1" stroke-linejoin="miter" id="Shadow" stroke="rgba(133, 138, 166, 1)" cx="188.639" ry="17.5588" stroke-linecap="butt" fill="rgba(133, 138, 166, 1)"/>
      </g>
     </g>
    </g>
   </g>
  </g>
 </g>
 <g transform="translate(167.889 385.927)">
  <g transform="translate(87.609 -91.478)">
   <g>
    <animateTransform attributeName="transform" dur="1.66667s" keySplines="0 0 1 1;0 0 1 1;0 0 1 1" calcMode="spline" keyTimes="0;0;0.5;1" type="rotate" values="0;0;21.4843;0" repeatCount="indefinite"/>
    <g transform="scale(0.728231 0.728231)">
     <g transform="skewX(0) skewY(0)">
      <g opacity="1" transform="translate(-167.889 -385.927)">
       <path d="M169.374 379.563C180.473 379.821 169.504 411.506 163.273 438.822C156.656 467.801 156.828 496.625 146.703 496.392C137.104 496.176 139.783 463.277 145.186 435.073C150.425 407.757 157.397 379.27 169.374 379.562C169.374 379.562 169.374 379.563 169.374 379.563Z" stroke-width="0.861702" stroke-linejoin="miter" id="ArmL" stroke="none" fill-rule="evenodd" stroke-linecap="butt" fill="rgba(237, 172, 129, 1)"/>
      </g>
     </g>
    </g>
   </g>
  </g>
 </g>
 <g transform="translate(1916.04 3636.44)">
  <g transform="translate(-1636.51 -3249.6)">
   <g transform="rotate(0)">
    <g transform="scale(0.627518 0.627517)">
     <g transform="skewX(0) skewY(0)">
      <g opacity="1" transform="translate(-1916.04 -3636.44)">
       <g id="LegR">
        <g transform="translate(1932.72 3675.11)">
         <g transform="translate(0 0)">
          <g transform="rotate(0)">
           <g transform="scale(1 1)">
            <g transform="skewX(0) skewY(0)">
             <g opacity="1" transform="translate(-1932.72 -3675.11)">
              <path d="M1896.75 3602.76C1898.49 3636.05 1911.5 3711.07 1911.37 3713.16C1910.65 3724.89 1902.3 3733.26 1905.75 3743.64C1907.27 3748.22 1916.87 3747.26 1923.95 3748.7C1940.78 3752.12 1965 3753.16 1966.68 3749.3C1968.25 3745.67 1970.71 3739.38 1966.46 3732.54C1957.77 3718.54 1944.17 3720.98 1938.54 3705.28C1928.75 3677.95 1933.2 3628.56 1933.6 3598.52C1933.6 3598.52 1896.75 3602.76 1896.75 3602.76Z" stroke-width="1" stroke-linejoin="miter" id="path2" stroke="none" fill-rule="evenodd" stroke-linecap="butt" fill="rgba(237, 172, 129, 1)"/>
             </g>
            </g>
           </g>
          </g>
         </g>
        </g>
        <g transform="translate(1936.88 3735.67)">
         <g transform="translate(0 0)">
          <g transform="rotate(0)">
           <g transform="scale(1 1)">
            <g transform="skewX(0) skewY(0)">
             <g opacity="1" transform="translate(-1936.88 -3735.67)">
              <path d="M1952.06 3719.97C1940.23 3722.76 1932.05 3732.89 1928.52 3742.85C1924.31 3742.12 1919.08 3742.21 1914.39 3741.38C1910.42 3740.68 1906.81 3739.25 1905.7 3734.61C1905.64 3734.38 1905.56 3734.16 1905.46 3733.95C1904.75 3737.09 1904.63 3740.26 1905.75 3743.64C1907.27 3748.22 1916.87 3747.26 1923.95 3748.7C1940.78 3752.12 1965 3753.16 1966.68 3749.3C1967.41 3747.6 1968.34 3745.33 1968.69 3742.69C1967.22 3743.57 1965.56 3743.81 1963.21 3744.07C1961.62 3736.28 1958.22 3729.84 1952.26 3726.1C1954.64 3725.41 1957.21 3725.1 1959.96 3725.25C1960 3725.25 1960.04 3725.25 1960.08 3725.25C1957.46 3723.11 1954.72 3721.54 1952.06 3719.96C1952.06 3719.96 1952.06 3719.97 1952.06 3719.97ZM1945.29 3729.47C1952.2 3731.58 1955.63 3737.38 1957.21 3744.64C1950.51 3745.14 1941.58 3745.33 1934.37 3744.12C1936.4 3738.62 1940.11 3733.11 1945.29 3729.47C1945.29 3729.47 1945.29 3729.47 1945.29 3729.47Z" stroke-width="1.04445" stroke-linejoin="miter" id="path3" stroke="none" fill-rule="evenodd" stroke-linecap="butt" fill="rgba(60, 3, 115, 1)"/>
             </g>
            </g>
           </g>
          </g>
         </g>
        </g>
       </g>
      </g>
     </g>
    </g>
   </g>
  </g>
 </g>
 <g transform="translate(1874.78 3635.85)">
  <g transform="translate(-1619.96 -3249.98)">
   <g transform="rotate(0)">
    <g transform="scale(0.627518 0.627517)">
     <g transform="skewX(0) skewY(0)">
      <g opacity="1" transform="translate(-1874.78 -3635.85)">
       <g id="LegL">
        <g transform="translate(1852.86 3676.07)">
         <g transform="translate(0 0)">
          <g transform="rotate(0)">
           <g transform="scale(1 1)">
            <g transform="skewX(0) skewY(0)">
             <g opacity="1" transform="translate(-1852.86 -3676.07)">
              <path d="M1850.67 3601.78C1853.95 3620.95 1860.36 3687.38 1857.25 3700.97C1854.72 3712.03 1832.24 3718.29 1822.99 3724.15C1819.09 3726.62 1810.41 3733.69 1812.1 3739.6C1813.66 3745.1 1819.55 3748.69 1824.66 3750.35C1829.67 3751.97 1847.87 3747.68 1862.04 3748.76C1876.71 3749.89 1884.81 3744.85 1888.09 3737.64C1894.58 3723.31 1882.59 3715.56 1881.54 3701.34C1879.23 3670.11 1894.08 3632.72 1893.84 3601.51C1893.84 3601.51 1850.67 3601.78 1850.67 3601.78Z" stroke-width="1" stroke-linejoin="miter" id="path6" stroke="none" fill-rule="evenodd" stroke-linecap="butt" fill="rgba(237, 172, 129, 1)"/>
             </g>
            </g>
           </g>
          </g>
         </g>
        </g>
        <g transform="translate(1850.93 3736.26)">
         <g transform="translate(0 0)">
          <g transform="rotate(0)">
           <g transform="scale(1 1)">
            <g transform="skewX(0) skewY(0)">
             <g opacity="1" transform="translate(-1850.93 -3736.26)">
              <path d="M1827.11 3721.88C1825.57 3722.65 1824.17 3723.4 1822.99 3724.15C1822.45 3724.49 1821.82 3724.92 1821.14 3725.42C1822.53 3725.65 1823.04 3725.58 1824.04 3727.22C1822.23 3728.31 1820.8 3729.63 1819.7 3731.1C1818.05 3733.31 1817.13 3735.89 1816.84 3738.61C1815.45 3736.39 1814.99 3733.79 1814.8 3731.37C1812.7 3733.99 1811.33 3736.92 1812.1 3739.6C1813.66 3745.1 1819.55 3748.69 1824.66 3750.35C1829.67 3751.97 1847.87 3747.68 1862.04 3748.76C1876.71 3749.89 1884.81 3744.85 1888.09 3737.64C1888.84 3735.98 1889.35 3734.4 1889.65 3732.89C1883.12 3739.49 1877.94 3739.36 1874.32 3740.32C1869.69 3741.54 1864.82 3741.36 1859.95 3741.19C1854.41 3741 1848.88 3740.81 1843.57 3741.86C1841.38 3737.05 1838.68 3732.33 1835.72 3728.69C1833.04 3725.39 1830.08 3722.99 1827.11 3721.88C1827.11 3721.88 1827.11 3721.88 1827.11 3721.88ZM1829.93 3731.15C1830.31 3731.57 1830.69 3732.01 1831.06 3732.47C1833.46 3735.42 1835.66 3739.17 1837.51 3743.05C1831.04 3744.1 1826.36 3744.01 1823 3743.03C1822.43 3740.06 1822.75 3737.04 1824.5 3734.7C1825.67 3733.13 1827.46 3731.91 1829.93 3731.15C1829.93 3731.15 1829.93 3731.15 1829.93 3731.15Z" stroke-width="1.04445" stroke-linejoin="miter" id="path7" stroke="none" fill-rule="evenodd" stroke-linecap="butt" fill="rgba(60, 3, 115, 1)"/>
             </g>
            </g>
           </g>
          </g>
         </g>
        </g>
       </g>
      </g>
     </g>
    </g>
   </g>
  </g>
 </g>
 <g transform="translate(509.44 305.182)">
  <g transform="translate(-225.772 3.30249)">
   <g transform="rotate(0)">
    <g transform="scale(1.40851 1.39518)">
     <g transform="skewX(0) skewY(0)">
      <g opacity="1" transform="translate(-509.44 -305.182)">
       <g id="Body">
        <g transform="translate(499.253 351.31)">
         <g transform="translate(0 0)">
          <g transform="rotate(0)">
           <g transform="scale(1 1)">
            <g transform="skewX(0) skewY(0)">
             <g opacity="1" transform="translate(-499.253 -351.31)">
              <path d="M511.748 335.29C511.748 335.29 482.669 335.29 482.669 335.29C482.669 335.29 470.435 358.148 470.435 358.148C475.528 361.638 480.508 363.703 485.382 364.494C485.293 365.317 485.235 365.785 485.235 365.785C495.166 368.394 503.649 367.499 511.552 365.241C511.552 365.241 511.45 364.737 511.267 363.856C517.094 362.61 524.486 359.344 528.054 356.16C528.054 356.16 516.355 341.718 511.748 335.29C511.748 335.29 511.748 335.29 511.748 335.29Z" stroke-width="0.447642" stroke-linejoin="miter" id="path10" stroke="none" fill-rule="evenodd" stroke-linecap="butt" fill="rgba(60, 3, 115, 1)"/>
             </g>
            </g>
           </g>
          </g>
         </g>
        </g>
        <g transform="translate(497.571 317.11)">
         <g transform="translate(0 0)">
          <g transform="rotate(0)">
           <g transform="scale(1 1)">
            <g transform="skewX(0) skewY(0)">
             <g opacity="1" transform="translate(-497.571 -317.11)">
              <path d="M489.771 291.838C486.238 296.259 480.887 302.25 480.633 308.326C480.442 312.932 484.224 316.638 483.756 321.338C483.315 325.769 478.575 334.171 479.551 338.551C481.199 345.95 492.564 342.586 498.329 341.997C500.535 341.772 512.555 343.346 514.283 341.731C519.358 336.982 509.218 326.111 508.358 321.033C506.905 312.455 517.593 297.114 508.309 292.539C507.28 292.036 496.142 289.764 489.771 291.838C489.771 291.838 489.771 291.838 489.771 291.838Z" stroke-width="0.447642" stroke-linejoin="miter" id="path11" stroke="none" fill-rule="evenodd" stroke-linecap="butt" fill="rgba(232, 0, 136, 1)"/>
             </g>
            </g>
           </g>
          </g>
         </g>
        </g>
        <g transform="translate(497.27 290.318)">
         <g transform="translate(0 0)">
          <g transform="rotate(0)">
           <g transform="scale(1 1)">
            <g transform="skewX(0) skewY(0)">
             <g opacity="1" transform="translate(-497.27 -290.318)">
              <path d="M502.53 282.878C502.53 286.647 503.101 291.986 501.644 295.638C500.062 299.601 495.919 303.105 493.326 297.914C491.602 294.464 491.923 283.922 491.963 280.148C491.963 280.148 502.53 282.878 502.53 282.878Z" stroke-width="0.447642" stroke-linejoin="miter" id="path12" stroke="none" fill-rule="evenodd" stroke-linecap="butt" fill="rgba(237, 172, 129, 1)"/>
             </g>
            </g>
           </g>
          </g>
         </g>
        </g>
       </g>
      </g>
     </g>
    </g>
   </g>
  </g>
 </g>
 <g transform="translate(207.397 390.489)">
  <g transform="translate(79.0014 -92.8396)">
   <g>
    <animateTransform attributeName="transform" dur="1.66667s" keySplines="0 0 1 1;0 0 1 1;0 0 1 1" calcMode="spline" keyTimes="0;0;0.5;1" type="rotate" values="0;0;-16.7298;0" repeatCount="indefinite"/>
    <g transform="scale(0.728231 0.728231)">
     <g transform="skewX(0) skewY(0)">
      <g opacity="1" transform="translate(-207.397 -390.489)">
       <path d="M203.441 381.268C192.342 381.526 203.312 413.211 209.542 440.527C216.16 469.506 215.987 498.33 226.112 498.097C235.712 497.882 233.032 464.982 227.629 436.778C222.39 409.462 215.418 380.975 203.441 381.268Z" stroke-width="0.861702" stroke-linejoin="miter" id="armL" stroke="none" fill-rule="evenodd" stroke-linecap="butt" fill="rgba(237, 172, 129, 1)"/>
      </g>
     </g>
    </g>
   </g>
  </g>
 </g>
 <g transform="translate(-2.25584 -6.21097)">
  <g transform="translate(268.783 279.366)">
   <g>
    <animateTransform attributeName="transform" dur="1.66667s" keySplines="0 0 1 1;0 0 1 1;0 0 1 1" calcMode="spline" keyTimes="0;0;0.5;1" type="rotate" values="-14.8736;-14.8736;8.90007;-14.8736" repeatCount="indefinite"/>
    <g transform="scale(1.40834 1.39535)">
     <g transform="skewX(0.0968238) skewY(0)">
      <g opacity="1" transform="translate(2.25584 6.21097)">
       <g id="Head">
        <g transform="translate(33.7572 -24.2975)">
         <g transform="translate(0 0)">
          <g transform="rotate(0)">
           <g transform="scale(1 1)">
            <g transform="skewX(0) skewY(0)">
             <g opacity="1" transform="translate(-33.7572 24.2975)">
              <path d="M8.60843 -30.2624C7.60156 -59.9809 33.9941 -60.2257 41.9823 -56.3449C43.35 -55.6786 44.5885 -54.8559 45.533 -53.7362C50.5095 -47.8567 48.2151 -41.0181 47.0968 -34.4322C46.5889 -31.4343 47.5334 -28.1193 51.5876 -28.0551C53.9133 -28.019 55.9983 -29.3073 57.219 -31.0209C57.6601 -31.647 57.9764 -32.3333 58.2348 -33.0316C58.3506 -33.3326 58.1813 -34.0911 58.5021 -33.9547C58.7471 -33.8463 58.8318 -32.9674 58.8719 -32.7065C59.0768 -31.4985 58.7739 -30.2183 58.3595 -29.0665C57.0943 -25.5388 54.4479 -22.1355 50.3268 -21.1081C49.2487 -20.8352 48.1037 -20.7268 46.9899 -20.7268C46.7627 -20.7268 45.6533 -20.9756 45.4573 -20.8633C45.3771 -20.8151 45.5954 -20.0927 45.6177 -19.9964C45.8761 -19.0171 46.2236 -18.0459 46.384 -17.0506C46.7493 -14.8032 46.3528 -12.5878 45.1454 -10.5812C43.3455 -7.59128 40.5566 -5.51239 37.7988 -3.27698C35.6514 -1.5312 30.6082 3.62188 36.7786 6.2827C38.8725 7.1897 41.6437 5.03456 41.6437 5.03456C41.6437 5.03456 40.5967 6.78436 40.1066 7.30609C37.8657 9.68196 34.502 9.87059 31.2542 8.95556C27.24 7.82782 26.7321 3.77037 26.8658 2.81521C25.4981 9.49334 16.1021 10.284 14.4715 5.41181C14.4715 5.41181 16.3159 6.12217 17.1758 5.87735C20.1919 5.01851 21.5329 1.79182 21.4928 -0.812817C21.4216 -5.11909 18.1648 -9.40128 15.8793 -13.0092C12.5379 -18.2867 8.81783 -24.0859 8.60843 -30.2624C8.60843 -30.2624 8.60843 -30.2624 8.60843 -30.2624Z" stroke-width="0.422848" stroke-linejoin="miter" id="path14" stroke="none" fill-rule="evenodd" stroke-linecap="butt" fill="rgba(60, 3, 115, 1)"/>
             </g>
            </g>
           </g>
          </g>
         </g>
        </g>
        <g transform="translate(-32.5234 -20.8884)">
         <g transform="translate(0 0)">
          <g transform="rotate(0)">
           <g transform="scale(1 1)">
            <g transform="skewX(0) skewY(0)">
             <g opacity="1" transform="translate(32.5234 20.8884)">
              <path d="M-37.5818 -48.7783C-44.5809 -9.44095 -34.7037 0.678986 -25.5884 6.80492C-30.8321 -6.56239 -27.6734 -21.9807 -25.1295 -39.8412C-25.1295 -39.8412 -37.5818 -48.7783 -37.5818 -48.7783Z" stroke-width="0.447642" stroke-linejoin="miter" id="path15" stroke="none" fill-rule="evenodd" stroke-linecap="butt" fill="rgba(60, 3, 115, 1)"/>
             </g>
            </g>
           </g>
          </g>
         </g>
        </g>
        <g transform="translate(-2.375 -32.0231)">
         <g transform="translate(0 0)">
          <g transform="rotate(0)">
           <g transform="scale(1 1)">
            <g transform="skewX(0) skewY(0)">
             <g opacity="1" transform="translate(2.375 32.0231)">
              <path d="M-35.216 -50.5729C-32.4627 -39.5264 -33.6746 -17.8832 -33.2112 -9.77378C-32.7924 -2.47394 -18.8967 -1.98818 -12.2629 -1.1516C-3.8827 -0.0946267 12.8866 1.6505 20.3001 -3.56689C23.3875 -5.73481 36.5838 -13.5789 27.0809 -48.306C7.46021 -69.9267 -15.5954 -67.8217 -35.216 -50.5729Z" stroke-width="0.447642" stroke-linejoin="miter" id="path16" stroke="none" fill-rule="evenodd" stroke-linecap="butt" fill="rgba(237, 172, 129, 1)"/>
             </g>
            </g>
           </g>
          </g>
         </g>
        </g>
        <g transform="translate(-2.37465 -5.01184)">
         <g transform="translate(0 0)">
          <g transform="rotate(0)">
           <g transform="scale(1 1)">
            <g transform="skewX(0) skewY(0)">
             <g opacity="1" transform="translate(2.37465 5.01184)">
              <path d="M6.2394 -10.0226C6.2394 -10.0226 -10.9881 -10.0219 -10.9881 -10.0219C-10.9881 -10.0219 -10.9887 -0.993995 -10.9887 -0.993995C-6.39532 -0.439006 0.0954809 0.195861 6.23902 -0.0566267C6.23902 -0.0566267 6.2394 -10.0226 6.2394 -10.0226Z" stroke-width="0.336989" stroke-linejoin="miter" id="rect16" stroke="none" fill-rule="evenodd" stroke-linecap="butt" fill="rgba(60, 3, 115, 1)"/>
             </g>
            </g>
           </g>
          </g>
         </g>
        </g>
        <g transform="translate(-2.2695 -1.59378)">
         <g transform="translate(0 0)">
          <g transform="rotate(0)">
           <g transform="scale(1 1)">
            <g transform="skewX(0) skewY(0)">
             <g opacity="1" transform="translate(2.2695 1.59378)">
              <path d="M-1.6706 -3.14135C-1.90397 -3.17114 -2.13934 -3.18603 -2.375 -3.18591C-4.33049 -3.18603 -6.10941 -2.15845 -6.93831 -0.549963C-4.06832 -0.271499 -0.83772 -0.0421831 2.42398 -0.00442791C1.83506 -1.67703 0.244014 -2.89596 -1.6706 -3.14135Z" stroke-width="0.336989" stroke-linejoin="miter" id="ellipse16" stroke="none" fill-rule="evenodd" stroke-linecap="butt" fill="rgba(232, 0, 136, 1)"/>
             </g>
            </g>
           </g>
          </g>
         </g>
        </g>
        <g transform="translate(-21.3533 -23.909)">
         <g transform="translate(0.709329 -0.62678)">
          <g transform="rotate(1.70952)">
           <g transform="scale(1 1)">
            <g transform="skewX(0.0253011) skewY(0)">
             <g opacity="1" transform="translate(21.3533 23.909)">
              <ellipse rx="3.0144" cy="-23.909" stroke-width="0.447642" stroke-linejoin="miter" id="circle23" stroke="none" cx="-21.3533" ry="3.04316" stroke-linecap="butt" fill="rgba(255, 255, 255, 1)"/>
             </g>
            </g>
           </g>
          </g>
         </g>
        </g>
        <g transform="translate(-19.7255 -17.8082)">
         <g transform="translate(0 0)">
          <g transform="rotate(0)">
           <g transform="scale(1 1)">
            <g transform="skewX(0) skewY(0)">
             <g opacity="1" transform="translate(19.7255 17.8082)">
              <path d="M-23.4829 -16.3275C-22.9547 -16.1002 -22.4199 -15.9448 -21.8655 -15.8517C-21.4796 -15.7862 -21.097 -15.7613 -20.7134 -15.7723C-20.2541 -15.7811 -19.8018 -15.8531 -19.3659 -15.9751C-19.177 -16.0325 -18.9879 -16.0988 -18.8074 -16.1744C-18.5635 -16.2841 -18.3324 -16.4122 -18.114 -16.5632C-17.7864 -16.7919 -17.4889 -17.0575 -17.2305 -17.3603C-16.9766 -17.6587 -16.7532 -17.9805 -16.5778 -18.3398C-16.3359 -18.8365 -16.1775 -19.3762 -16.1017 -19.9859C-16.3226 -19.4436 -16.6078 -18.9886 -16.9451 -18.5802C-17.176 -18.3081 -17.4281 -18.0681 -17.6975 -17.8512C-17.9668 -17.6343 -18.2572 -17.4584 -18.5561 -17.2964C-18.7553 -17.1898 -18.9588 -17.0924 -19.1665 -16.9996C-19.4737 -16.8603 -19.7895 -16.7302 -20.1222 -16.6321C-20.3426 -16.5622 -20.5628 -16.5013 -20.7961 -16.4498C-21.3119 -16.3392 -21.8399 -16.2694 -22.3883 -16.2633C-22.7539 -16.2607 -23.1144 -16.276 -23.4829 -16.3275C-23.4829 -16.3275 -23.4829 -16.3275 -23.4829 -16.3275Z" stroke-width="0.447642" stroke-linejoin="miter" id="path24" stroke="none" fill-rule="evenodd" stroke-linecap="butt" fill="rgba(224, 142, 88, 1)"/>
             </g>
            </g>
           </g>
          </g>
         </g>
        </g>
        <g transform="translate(-12.246 -23.9034)">
         <g transform="translate(25.1862 0.375569)">
          <g transform="rotate(-178.29)">
           <g transform="scale(1 -1)">
            <g transform="skewX(-0.0253011) skewY(0)">
             <g opacity="1" transform="translate(12.246 23.9034)">
              <ellipse rx="3.0144" cy="-23.9034" stroke-width="0.447642" stroke-linejoin="miter" id="circle25" stroke="none" cx="-12.246" ry="3.04316" stroke-linecap="butt" fill="rgba(255, 255, 255, 1)"/>
             </g>
            </g>
           </g>
          </g>
         </g>
        </g>
        <g transform="translate(11.643 -16.9286)">
         <g transform="translate(0 0)">
          <g transform="rotate(0)">
           <g transform="scale(1 1)">
            <g transform="skewX(0) skewY(0)">
             <g opacity="1" transform="translate(-11.643 16.9286)">
              <path d="M15.2938 -15.1646C14.923 -15.1352 14.5621 -15.1414 14.1974 -15.1658C13.6503 -15.2046 13.1273 -15.3057 12.6189 -15.4469C12.389 -15.5122 12.1728 -15.5862 11.9568 -15.6691C11.6304 -15.7869 11.3228 -15.9355 11.0243 -16.0929C10.8223 -16.198 10.625 -16.3073 10.4323 -16.4256C10.1434 -16.6052 9.86381 -16.798 9.60765 -17.0307C9.35149 -17.2633 9.1138 -17.5179 8.8993 -17.8033C8.58646 -18.2311 8.32837 -18.7022 8.13958 -19.2568C8.17957 -18.6437 8.30615 -18.0954 8.51852 -17.5851C8.67262 -17.2161 8.87677 -16.8815 9.11274 -16.5685C9.35304 -16.2508 9.63447 -15.9679 9.94813 -15.7201C10.1573 -15.5563 10.3804 -15.4147 10.6175 -15.2906C10.7933 -15.2044 10.9782 -15.1269 11.1634 -15.0583C11.5914 -14.9106 12.0387 -14.8117 12.4967 -14.7756C12.879 -14.7417 13.2624 -14.7437 13.6514 -14.7861C14.2103 -14.8459 14.7532 -14.9692 15.2938 -15.1646C15.2938 -15.1646 15.2938 -15.1646 15.2938 -15.1646Z" stroke-width="0.447642" stroke-linejoin="miter" id="path26" stroke="none" fill-rule="evenodd" stroke-linecap="butt" fill="rgba(224, 142, 88, 1)"/>
             </g>
            </g>
           </g>
          </g>
         </g>
        </g>
        <g transform="translate(-2.12072 -33.1499)">
         <g transform="translate(0 0)">
          <g transform="rotate(0)">
           <g transform="scale(1 1)">
            <g transform="skewX(0) skewY(0)">
             <g opacity="1" transform="translate(2.12072 33.1499)">
              <path d="M26.3458 -30.0811C27.8516 -19.8892 16.6691 -0.616366 10.3828 5.41512C24.0068 2.46009 31.8123 -5.86074 33.7592 -9.1396C52.1636 -40.1021 34.9086 -52.6733 32.1687 -51.0586C32.1687 -51.0586 34.178 -62.2265 22.5811 -68.4065C5.48211 -77.5189 -29.5847 -65.6673 -29.5847 -65.6673C-34.4943 -64.2281 -38.5441 -65.384 -41.3687 -70.2595C-42.3934 -64.7588 -41.0301 -60.6164 -37.2877 -57.8277C-53.9679 -46.417 -42.732 -27.3195 -42.732 -27.3195C-42.732 -27.3195 -43.4181 -39.6164 -36.7264 -44.3255C-38.8426 -35.7798 -36.5615 -29.1231 -31.7856 -23.33C-31.7856 -23.33 -29.9946 -39.8592 -21.8906 -45.5489C-20.5139 -32.4379 -12.2852 -27.9807 -12.2852 -27.9807C-13.5104 -32.258 -13.0738 -37.1336 -10.1289 -42.9177C-5.54448 -35.366 0.99128 -29.7843 11.2382 -27.9447C8.07058 -32.1996 6.21722 -40.7363 11.3897 -44.9867C18.2106 -36.6164 20.9594 -23.0916 18.6517 -18.1171C18.6517 -18.1171 26.3458 -30.0811 26.3458 -30.0811Z" stroke-width="0.447642" stroke-linejoin="miter" id="path27" stroke="none" fill-rule="evenodd" stroke-linecap="butt" fill="rgba(60, 3, 115, 1)"/>
             </g>
            </g>
           </g>
          </g>
         </g>
        </g>
       </g>
      </g>
     </g>
    </g>
   </g>
  </g>
 </g>
 <g transform="translate(1892.05 3172.24)">
  <g transform="translate(-1630.57 -3072.63)">
   <g transform="rotate(0)">
    <g transform="scale(0.627518 0.627518)">
     <g transform="skewX(0) skewY(0)">
      <g opacity="1" transform="translate(-1892.05 -3172.24)">
       <g id="Text">
        <g transform="translate(1892.05 3172.24)">
         <g transform="translate(0 0)">
          <g transform="rotate(0)">
           <g transform="scale(1 1)">
            <g transform="skewX(0) skewY(0)">
             <g opacity="1" transform="translate(-1892.05 -3172.24)">
              <path d="M1878.11 3229.94C1776.4 3226.87 1696 3190.43 1696 3146C1696 3099.56 1783.84 3061.86 1892.04 3061.86C2000.24 3061.86 2088.09 3099.56 2088.09 3146C2088.09 3190.81 2006.32 3227.48 1903.38 3230.01C1903.38 3230.01 1892.04 3274.6 1892.04 3274.6C1892.04 3274.6 1878.11 3229.94 1878.11 3229.94Z" stroke-width="6" stroke-linejoin="miter" id="path39" stroke="rgba(108, 114, 146, 1)" fill-rule="evenodd" stroke-linecap="butt" fill="rgba(255, 255, 255, 1)"/>
             </g>
            </g>
           </g>
          </g>
         </g>
        </g>
        <g transform="translate(1892.04 3146)">
         <g transform="translate(0 0)">
          <g transform="rotate(0)">
           <g transform="scale(1 1)">
            <g transform="skewX(0) skewY(0)">
             <g opacity="1" transform="translate(-1892.04 -3146)">
              <path d="M1757.96 3116.46C1753.91 3116.46 1750.19 3117.22 1746.8 3118.75C1743.4 3120.28 1740.47 3122.41 1737.97 3125.12C1735.48 3127.82 1733.56 3130.95 1732.19 3134.51C1730.82 3138.07 1730.13 3141.89 1730.13 3146.01C1730.13 3150.11 1730.82 3153.93 1732.19 3157.49C1733.56 3161.05 1735.48 3164.18 1737.97 3166.89C1740.47 3169.59 1743.4 3171.72 1746.8 3173.25C1750.19 3174.78 1753.91 3175.54 1757.96 3175.54C1762.01 3175.54 1765.74 3174.78 1769.16 3173.25C1772.58 3171.72 1775.53 3169.59 1778.02 3166.89C1780.5 3164.18 1782.44 3161.05 1783.8 3157.49C1785.17 3153.93 1785.85 3150.11 1785.85 3146.01C1785.85 3141.89 1785.17 3138.07 1783.8 3134.51C1782.44 3130.95 1780.5 3127.82 1778.02 3125.12C1775.53 3122.41 1772.58 3120.28 1769.16 3118.75C1765.74 3117.22 1762.01 3116.46 1757.96 3116.46ZM1962.53 3116.46C1958.48 3116.46 1954.77 3117.22 1951.37 3118.75C1947.98 3120.28 1945.03 3122.41 1942.55 3125.12C1940.06 3127.82 1938.13 3130.95 1936.76 3134.51C1935.39 3138.07 1934.72 3141.89 1934.72 3146.01C1934.72 3150.11 1935.39 3153.93 1936.76 3157.49C1938.13 3161.05 1940.06 3164.18 1942.55 3166.89C1945.03 3169.59 1947.98 3171.72 1951.37 3173.25C1954.77 3174.78 1958.48 3175.54 1962.53 3175.54C1966.57 3175.54 1970.31 3174.78 1973.74 3173.25C1977.15 3171.72 1980.1 3169.59 1982.59 3166.89C1985.08 3164.18 1987.01 3161.05 1988.37 3157.49C1989.74 3153.93 1990.43 3150.11 1990.43 3146.01C1990.43 3141.89 1989.74 3138.07 1988.37 3134.51C1987.01 3130.95 1985.08 3127.82 1982.59 3125.12C1980.1 3122.41 1977.15 3120.28 1973.74 3118.75C1970.31 3117.22 1966.57 3116.46 1962.53 3116.46ZM1800.54 3117.28C1799.01 3117.28 1797.75 3117.76 1796.76 3118.71C1795.79 3119.67 1795.29 3120.86 1795.29 3122.29C1795.29 3122.29 1795.29 3169.72 1795.29 3169.72C1795.29 3171.14 1795.76 3172.33 1796.68 3173.29C1797.62 3174.24 1798.85 3174.72 1800.38 3174.72C1801.75 3174.72 1802.95 3174.24 1803.99 3173.29C1805.04 3172.33 1805.55 3171.14 1805.55 3169.72C1805.55 3169.72 1805.55 3150.6 1805.55 3150.6C1805.55 3150.6 1831.72 3150.6 1831.72 3150.6C1831.72 3150.6 1831.72 3169.72 1831.72 3169.72C1831.72 3171.14 1832.24 3172.33 1833.25 3173.29C1834.25 3174.24 1835.42 3174.72 1836.73 3174.72C1838.32 3174.72 1839.59 3174.24 1840.55 3173.29C1841.51 3172.33 1841.98 3171.14 1841.98 3169.72C1841.98 3169.72 1841.98 3122.29 1841.98 3122.29C1841.98 3120.86 1841.52 3119.67 1840.59 3118.71C1839.66 3117.76 1838.42 3117.28 1836.89 3117.28C1835.53 3117.28 1834.32 3117.76 1833.28 3118.71C1832.25 3119.67 1831.72 3120.86 1831.72 3122.29C1831.72 3122.29 1831.72 3141.16 1831.72 3141.16C1831.72 3141.16 1805.55 3141.16 1805.55 3141.16C1805.55 3141.16 1805.55 3122.29 1805.55 3122.29C1805.55 3120.86 1805.05 3119.67 1804.03 3118.71C1803.02 3117.76 1801.85 3117.28 1800.54 3117.28ZM1882.28 3117.28C1880.86 3117.28 1879.66 3117.76 1878.7 3118.71C1877.75 3119.67 1877.27 3120.86 1877.27 3122.29C1877.27 3122.29 1877.27 3170.12 1877.27 3170.12C1877.27 3171.43 1877.67 3172.53 1878.5 3173.41C1879.33 3174.28 1880.38 3174.72 1881.7 3174.72C1883.06 3174.72 1884.17 3174.28 1885.03 3173.41C1885.88 3172.53 1886.3 3171.43 1886.3 3170.12C1886.3 3170.12 1886.3 3135.09 1886.3 3135.09C1886.3 3135.09 1916.41 3173.33 1916.41 3173.33C1916.79 3173.76 1917.36 3174.1 1918.09 3174.36C1918.83 3174.6 1919.55 3174.72 1920.27 3174.72C1921.69 3174.72 1922.88 3174.24 1923.84 3173.29C1924.79 3172.33 1925.28 3171.14 1925.28 3169.72C1925.28 3169.72 1925.28 3121.88 1925.28 3121.88C1925.28 3120.57 1924.86 3119.47 1924.05 3118.59C1923.22 3117.71 1922.15 3117.28 1920.84 3117.28C1919.47 3117.28 1918.39 3117.71 1917.56 3118.59C1916.74 3119.47 1916.33 3120.57 1916.33 3121.88C1916.33 3121.88 1916.33 3157.19 1916.33 3157.19C1916.33 3157.19 1886.46 3119.09 1886.46 3119.09C1886.08 3118.48 1885.47 3118.04 1884.66 3117.74C1883.84 3117.43 1883.04 3117.28 1882.28 3117.28ZM2004.62 3117.28C2002.98 3117.28 2001.66 3117.86 2000.65 3119C1999.64 3120.15 1999.18 3121.57 1999.3 3123.27C1999.3 3123.27 2001.67 3153.47 2001.67 3153.47C2001.83 3155.54 2002.85 3156.58 2004.72 3156.58C2006.52 3156.58 2007.5 3155.54 2007.67 3153.47C2007.67 3153.47 2009.96 3123.27 2009.96 3123.27C2010.13 3121.57 2009.68 3120.15 2008.64 3119C2007.61 3117.86 2006.27 3117.28 2004.62 3117.28ZM2026.54 3117.28C2024.89 3117.28 2023.56 3117.86 2022.56 3119C2021.55 3120.15 2021.1 3121.57 2021.21 3123.27C2021.21 3123.27 2023.58 3153.47 2023.58 3153.47C2023.75 3155.54 2024.75 3156.58 2026.62 3156.58C2028.42 3156.58 2029.41 3155.54 2029.57 3153.47C2029.57 3153.47 2031.88 3123.27 2031.88 3123.27C2032.04 3121.57 2031.59 3120.15 2030.56 3119C2029.52 3117.86 2028.18 3117.28 2026.54 3117.28ZM2048.45 3117.28C2046.81 3117.28 2045.48 3117.86 2044.47 3119C2043.45 3120.15 2043.01 3121.57 2043.11 3123.27C2043.11 3123.27 2045.5 3153.47 2045.5 3153.47C2045.66 3155.54 2046.67 3156.58 2048.53 3156.58C2050.33 3156.58 2051.32 3155.54 2051.48 3153.47C2051.48 3153.47 2053.78 3123.27 2053.78 3123.27C2053.95 3121.57 2053.51 3120.15 2052.47 3119C2051.43 3117.86 2050.09 3117.28 2048.45 3117.28C2048.45 3117.28 2048.45 3117.28 2048.45 3117.28ZM1757.96 3126.31C1761.34 3126.31 1764.33 3127.17 1766.89 3128.93C1769.47 3130.68 1771.5 3133.05 1772.97 3136.03C1774.45 3139.01 1775.19 3142.34 1775.19 3146.01C1775.19 3149.66 1774.45 3152.99 1772.97 3155.97C1771.5 3158.95 1769.47 3161.32 1766.89 3163.07C1764.33 3164.81 1761.34 3165.69 1757.96 3165.69C1754.56 3165.69 1751.58 3164.81 1749.01 3163.07C1746.44 3161.32 1744.43 3158.95 1742.98 3155.97C1741.53 3152.99 1740.8 3149.66 1740.8 3146.01C1740.8 3142.29 1741.53 3138.94 1742.98 3135.99C1744.43 3133.04 1746.44 3130.68 1749.01 3128.93C1751.58 3127.17 1754.56 3126.31 1757.96 3126.31ZM1962.53 3126.31C1965.92 3126.31 1968.9 3127.17 1971.48 3128.93C1974.05 3130.68 1976.07 3133.05 1977.54 3136.03C1979.03 3139.01 1979.76 3142.34 1979.76 3146.01C1979.76 3149.66 1979.03 3152.99 1977.54 3155.97C1976.07 3158.95 1974.05 3161.32 1971.48 3163.07C1968.9 3164.81 1965.92 3165.69 1962.53 3165.69C1959.14 3165.69 1956.16 3164.81 1953.59 3163.07C1951.02 3161.32 1949 3158.95 1947.55 3155.97C1946.1 3152.99 1945.39 3149.66 1945.39 3146.01C1945.39 3142.29 1946.1 3138.94 1947.55 3135.99C1949 3133.04 1951.02 3130.68 1953.59 3128.93C1956.16 3127.17 1959.14 3126.31 1962.53 3126.31ZM2004.13 3163.47C2002.55 3163.47 2001.33 3163.91 2000.48 3164.75C1999.64 3165.6 1999.21 3166.82 1999.21 3168.4C1999.21 3168.4 1999.21 3169.8 1999.21 3169.8C1999.21 3171.38 1999.64 3172.6 2000.48 3173.45C2001.33 3174.29 2002.55 3174.72 2004.13 3174.72C2004.13 3174.72 2005.2 3174.72 2005.2 3174.72C2006.79 3174.72 2008.01 3174.29 2008.86 3173.45C2009.7 3172.6 2010.13 3171.38 2010.13 3169.8C2010.13 3169.8 2010.13 3168.4 2010.13 3168.4C2010.13 3166.82 2009.7 3165.6 2008.86 3164.75C2008.01 3163.91 2006.79 3163.47 2005.2 3163.47C2005.2 3163.47 2004.13 3163.47 2004.13 3163.47ZM2026.04 3163.47C2024.46 3163.47 2023.24 3163.91 2022.4 3164.75C2021.54 3165.6 2021.13 3166.82 2021.13 3168.4C2021.13 3168.4 2021.13 3169.8 2021.13 3169.8C2021.13 3171.38 2021.54 3172.6 2022.4 3173.45C2023.24 3174.29 2024.46 3174.72 2026.04 3174.72C2026.04 3174.72 2027.11 3174.72 2027.11 3174.72C2028.69 3174.72 2029.91 3174.29 2030.77 3173.45C2031.61 3172.6 2032.04 3171.38 2032.04 3169.8C2032.04 3169.8 2032.04 3168.4 2032.04 3168.4C2032.04 3166.82 2031.61 3165.6 2030.77 3164.75C2029.91 3163.91 2028.69 3163.47 2027.11 3163.47C2027.11 3163.47 2026.04 3163.47 2026.04 3163.47ZM2047.95 3163.47C2046.36 3163.47 2045.16 3163.91 2044.3 3164.75C2043.45 3165.6 2043.03 3166.82 2043.03 3168.4C2043.03 3168.4 2043.03 3169.8 2043.03 3169.8C2043.03 3171.38 2043.45 3172.6 2044.3 3173.45C2045.16 3174.29 2046.36 3174.72 2047.95 3174.72C2047.95 3174.72 2049.02 3174.72 2049.02 3174.72C2050.6 3174.72 2051.82 3174.29 2052.67 3173.45C2053.53 3172.6 2053.95 3171.38 2053.95 3169.8C2053.95 3169.8 2053.95 3168.4 2053.95 3168.4C2053.95 3166.82 2053.53 3165.6 2052.67 3164.75C2051.82 3163.91 2050.6 3163.47 2049.02 3163.47C2049.02 3163.47 2047.95 3163.47 2047.95 3163.47Z" stroke-width="1.35395" stroke-linejoin="miter" id="path31" stroke="none" fill-rule="evenodd" stroke-linecap="butt" fill="rgba(133, 138, 166, 1)"/>
             </g>
            </g>
           </g>
          </g>
         </g>
        </g>
       </g>
      </g>
     </g>
    </g>
   </g>
  </g>
 </g>
 <defs/>
</svg>

