<svg viewBox="0 0 135.47 67.73" xml:space="preserve" xmlns="http://www.w3.org/2000/svg"><path d="M30.87 21.6c7.17-10.94 14.27-9.35 19.03-5.25s6.63 11.02 1.87 19.22c-3.33 6.15-12.78 7.62-20.9 18.82-9.27-12.27-14.1-10.77-19.02-15.97-7.08-7.46-5.18-17.97-.42-22.07s13.8-6.58 19.44 5.25m3.11 14.46c0 1.36-1.53 2.36-3.31 2.36-1.79 0-3.32-1-3.32-2.36 0-.45-.39-.82-.87-.82a.85.85 0 0 0-.88.82c0 2.17 2.23 4.02 5.07 4.02s5.07-1.85 5.07-4.02c0-.45-.4-.82-.88-.82s-.88.37-.88.82m6.9-5.72c-1.14 0-2.07.4-2.07.88s.93.88 2.07.88c1.15 0 2.08-.4 2.08-.88s-.93-.88-2.08-.88m-3.65-5.54c-.7 0-1.26 1.1-1.26 2.45 0 1.36.56 2.46 1.26 2.46s1.25-1.1 1.25-2.46-.56-2.45-1.25-2.45m-16.87 5.54c-1.14 0-2.07.4-2.07.88s.93.88 2.07.88c1.15 0 2.08-.4 2.08-.88s-.93-.88-2.08-.88m3.66-5.54c-.69 0-1.25 1.1-1.25 2.45 0 1.36.56 2.46 1.25 2.46.7 0 1.26-1.1 1.26-2.46s-.56-2.45-1.26-2.45" fill="#fff"/><path fill="none" stroke="#fff" stroke-width="1.63" stroke-dasharray="1.62725,1.62725" d="M2.88 5.5h129.63v55.67H2.88z"/><path style="-inkscape-font-specification:&quot;Sour Gummy, Normal&quot;" d="M76.6 11.72q-1.44 0-2.67.84a7.5 7.5 0 0 0-2.15 2.23q-.92 1.4-1.45 3.18a14 14 0 0 0-.58 3.65q-.11 2.55.61 4.52a7 7 0 0 0 2.15 3.06 5 5 0 0 0 3.23 1.12 8.3 8.3 0 0 0 4.55-1.4 8.8 8.8 0 0 0 3.43-4.27 10 10 0 0 0 .6-3.22q.09-2.21-.33-3.82a8 8 0 0 0-1.17-2.76 7.2 7.2 0 0 0-3.99-2.82q-1.11-.3-2.22-.3m17.04 0q-1.44 0-2.68.84a7.5 7.5 0 0 0-2.14 2.23q-.93 1.4-1.45 3.18a14 14 0 0 0-.59 3.65q-.11 2.55.62 4.52a7 7 0 0 0 2.14 3.06 5 5 0 0 0 3.24 1.12 8.3 8.3 0 0 0 4.54-1.4 9 9 0 0 0 3.43-4.27 10 10 0 0 0 .61-3.22q.09-2.21-.33-3.82a8 8 0 0 0-1.17-2.76 7.2 7.2 0 0 0-3.99-2.82q-1.1-.3-2.23-.3m14.7.09a3.6 3.6 0 0 0-1.68.41 5 5 0 0 0-1.48 1.06q-.64.67-1.03 1.54a5 5 0 0 0-.36 1.81q0 1.84.95 2.98a3.3 3.3 0 0 0 2.65 1.12q.84 0 1.67-.36a5 5 0 0 0 1.53-1q.7-.65 1.12-1.49.42-.83.42-1.75 0-1.26-.48-2.23a3.7 3.7 0 0 0-1.33-1.54 3.5 3.5 0 0 0-1.98-.55m9.79.04-.15.01q-.24.05-.44.2-.17.13-.25.28l-.09.1a283 283 0 0 0-5.21 11.6 75 75 0 0 0-1.79 4.64l-.02.16.02.36q.06.23.23.45.2.22.58.34.53.19.87.08t.47-.28l.17-.2q.75-1.97 1.81-4.51 1.06-2.56 2.34-5.52l2.7-6.2.03-.13a1 1 0 0 0 .03-.42.7.7 0 0 0-.2-.47q-.16-.22-.58-.4-.3-.1-.52-.1M66 12.29q-.47 0-1.08.33-.78.38-1.64 1.2l-4.02 3.45-.08.14a1 1 0 0 0-.14.3q-.02.21.03.45.07.23.39.48a1.5 1.5 0 0 0 1.06.3q.22-.05.33-.1l.14-.1 3.46-3.17a69 69 0 0 0-.2 6.75 72 72 0 0 0 .28 6.47l.06.2q.05.18.2.47.14.24.41.44.3.2.78.22.48 0 .73-.16a1 1 0 0 0 .39-.4q.1-.21.14-.38l.03-.17a449 449 0 0 1-.2-6.25v-3.4l.08-3.15q.06-1.47.17-2.6l-.03-.16a1 1 0 0 0-.14-.39 1 1 0 0 0-.27-.44 1 1 0 0 0-.59-.31q-.15-.03-.3-.02m42.27 1.44h.12q.78.06 1.17.78.42.72.3 1.79-.07.7-.47 1.28-.36.56-.89.89-.5.3-1 .25-.78-.06-1.14-.72a3 3 0 0 1-.26-1.7q.06-.7.42-1.29t.87-.94q.44-.33.88-.34m-31.33.7q.95 0 1.84.33.91.34 1.65 1.09.72.75 1.11 2 .11.34.19.7a43 43 0 0 0-5.49 1.9q-2.14.9-4.06 2.07a11 11 0 0 1 .44-3.75 9 9 0 0 1 1.06-2.25q.64-.97 1.45-1.54a3.2 3.2 0 0 1 1.81-.55m17.04 0q.94 0 1.84.33.92.34 1.64 1.09.73.75 1.12 2 .1.34.18.7a43 43 0 0 0-5.48 1.9q-2.14.9-4.06 2.07a11 11 0 0 1 .44-3.75 9 9 0 0 1 1.05-2.25q.64-.97 1.45-1.54a3.2 3.2 0 0 1 1.82-.55m-12.1 6.42v.1a8 8 0 0 1-.62 2.93q-.52 1.25-1.36 2.09-.81.81-1.79 1.23-.94.39-1.9.39-1.28 0-2.22-.7a4.4 4.4 0 0 1-1.46-2.28 31 31 0 0 1 4.58-2.32 26 26 0 0 1 4.77-1.44m17.04 0v.1a8 8 0 0 1-.62 2.93q-.54 1.25-1.37 2.09-.8.81-1.78 1.23-.96.39-1.9.39-1.28 0-2.23-.7a4.4 4.4 0 0 1-1.45-2.28 31 31 0 0 1 4.57-2.32 26 26 0 0 1 4.77-1.44m23.22.4a3.6 3.6 0 0 0-1.68.43q-.8.39-1.47 1.08-.65.67-1.04 1.54a4 4 0 0 0-.39 1.78q0 1.84.95 2.99a3.4 3.4 0 0 0 2.68 1.11q.86 0 1.7-.36a6 6 0 0 0 1.53-1 4.7 4.7 0 0 0 1.5-3.24q0-1.26-.47-2.2a3.7 3.7 0 0 0-3.31-2.12m-.07 1.93h.12q.78.09 1.17.81.4.72.31 1.79-.09.7-.47 1.28-.37.56-.9.89-.5.3-1.03.25a1.3 1.3 0 0 1-1.11-.72 3 3 0 0 1-.25-1.73q.05-.7.41-1.28.37-.62.87-.95.44-.32.88-.34m-61.78 8.56a.4.4 0 0 0-.38.18l-.06.14-.02.06a40 40 0 0 0-.13 3.99q0 .69.03 1.33l.08 1.1.02.07.1.17q.07.1.2.17.12.06.3.07.17 0 .26-.07.1-.07.14-.15l.06-.14v-.07l-.05-1.2v-.12l.16-.41.31-.7q.18-.38.42-.71.23-.34.55-.58.3-.24.7-.32.34.01.62.32.28.3.46.95.09.35.09.73.01.39-.04.82l-.12.95v.07q0 .07.04.17t.15.2q.1.09.28.12.2.05.31.01l.2-.09.1-.12.04-.05q.15-.77.18-1.46.05-.7-.1-1.41a4 4 0 0 0-.46-1.08q-.3-.47-.75-.77-.45-.29-1.01-.34-.3 0-.64.14-.32.12-.65.37a4 4 0 0 0-.85.93v-.4a62 62 0 0 1 .1-2.33l-.03-.08-.07-.18a.4.4 0 0 0-.16-.18 1 1 0 0 0-.3-.09zm59.54 0-.21.04-.16.14-.08.14v.06a40 40 0 0 0-.12 1.98 2 2 0 0 0-.53-.38 3 3 0 0 0-2.5-.07q-.48.22-.86.62-.37.4-.6.92-.21.51-.21 1.1 0 .57.19 1.06a2.6 2.6 0 0 0 1.35 1.44q.48.2 1.06.2.65 0 1.16-.23a3 3 0 0 0 .99-.72l.04.5.02.07.1.17q.07.1.18.17.13.07.32.07.16 0 .26-.07t.14-.15l.06-.14.02-.07a45 45 0 0 1-.07-3.97l.02-1.3.06-1.04-.02-.08-.07-.18a.4.4 0 0 0-.16-.18.5.5 0 0 0-.29-.09zm-34.97 1.68a2.8 2.8 0 0 0-2.56 1.77q-.2.51-.2 1.1 0 .57.18 1.06a2.6 2.6 0 0 0 1.36 1.44q.48.2 1.05.2.65 0 1.16-.23a3 3 0 0 0 1.08-.82l.07.8.05.06q.06.08.17.14t.31.07a.4.4 0 0 0 .25-.07q.1-.08.13-.15l.06-.14.01-.07-.09-2.38a25 25 0 0 1 .1-2.16l-.01-.08-.04-.2a.5.5 0 0 0-.45-.32 1 1 0 0 0-.34.06.4.4 0 0 0-.15.12l-.05.07-.04.54a2 2 0 0 0-.64-.5q-.6-.31-1.41-.31m25.82 0a2.8 2.8 0 0 0-2.55 1.77q-.21.51-.21 1.1 0 .57.19 1.06a2.6 2.6 0 0 0 1.35 1.44q.5.2 1.06.2.65 0 1.16-.23a3 3 0 0 0 1.07-.82l.07.8.06.06q.06.08.17.14t.31.07a.4.4 0 0 0 .25-.07q.09-.08.13-.15l.06-.14v-.07l-.08-2.38a25 25 0 0 1 .1-2.16l-.01-.08-.05-.2a.5.5 0 0 0-.45-.32 1 1 0 0 0-.33.06.4.4 0 0 0-.16.12l-.04.07-.04.54a2 2 0 0 0-.65-.5q-.6-.31-1.4-.31m-38.1.02-.2.06-.16.13-.06.15-.01.05a46 46 0 0 0-.12 2.46l.02 1.13q.02.57.1 1.17l.02.06.1.14q.07.08.17.15.12.06.27.07.19 0 .3-.06.08-.07.14-.15l.06-.15.01-.07a42 42 0 0 1-.07-2.42v-.11q.1-.4.31-.76t.6-.6q.32-.2.64-.22.33-.02.63.17.3.18.53.6.24.43.26 1.21.04.78-.08 1.72v.09q0 .07.04.19.03.1.13.2t.3.15.35 0a.4.4 0 0 0 .2-.14l.08-.17.03-.08q.1-.72.12-1.34 0-.5-.06-.99v-.03q.09-.4.3-.76.22-.36.6-.6.33-.2.65-.22t.61.17.53.6q.25.43.28 1.21t-.09 1.72v.09q0 .07.04.19.04.1.14.2t.29.15q.23.04.35 0l.2-.14a.4.4 0 0 0 .08-.17l.02-.08q.11-.72.12-1.34a5 5 0 0 0-.37-2.05 2.8 2.8 0 0 0-1.42-1.42 2 2 0 0 0-.84-.11 3 3 0 0 0-.8.16 3 3 0 0 0-1.25.91v.02a2 2 0 0 0-.65-.66 3 3 0 0 0-.53-.32 2 2 0 0 0-.83-.11 2.7 2.7 0 0 0-1.44.5v-.02l-.02-.08-.06-.18a.4.4 0 0 0-.16-.19.5.5 0 0 0-.3-.08zm16.71 0-.21.06-.16.13-.05.15-.02.05a46 46 0 0 0-.12 2.46l.02 1.13.1 1.17.03.06.1.14q.07.08.16.15.12.06.27.07.2 0 .3-.06.1-.07.14-.15l.07-.15v-.07a42 42 0 0 1-.07-2.42v-.05l.01-.06q.09-.4.3-.76.22-.36.6-.6.32-.2.65-.22.32-.02.62.17.3.18.53.6.24.43.27 1.21t-.1 1.72v.09l.05.19q.04.1.14.2t.29.15q.22.04.36 0a.4.4 0 0 0 .19-.14l.09-.17.02-.08q.1-.72.12-1.34.02-.61-.1-1.21-.11-.48-.28-.84a2.8 2.8 0 0 0-1.42-1.42 2 2 0 0 0-.83-.11 2.7 2.7 0 0 0-1.43.5v-.02l-.02-.08-.07-.18a.4.4 0 0 0-.16-.19.5.5 0 0 0-.3-.08zm9.12 0-.2.06-.16.13-.06.15-.01.05a47 47 0 0 0-.12 2.46l.02 1.13q.02.57.1 1.17l.02.06.1.14q.07.08.17.15t.27.07q.19 0 .29-.06.1-.07.14-.15l.07-.15.01-.07a42 42 0 0 1-.08-2.42v-.05l.02-.06q.09-.4.3-.76t.6-.6q.3-.2.64-.22.33-.02.63.17.3.18.52.6.26.43.27 1.21.04.78-.09 1.72v.09l.05.19q.03.1.13.2t.3.15.35 0a.4.4 0 0 0 .2-.14l.08-.17.02-.08q.12-.72.13-1.34 0-.5-.07-.99l.01-.03q.09-.4.3-.76.22-.36.6-.6.32-.2.65-.22.32-.02.61.17.3.18.53.6.25.43.28 1.21t-.1 1.72v.09l.05.19q.04.1.14.2t.29.15q.22.04.35 0l.2-.14a.4.4 0 0 0 .08-.17l.02-.08q.1-.72.12-1.34a5 5 0 0 0-.37-2.05 2.8 2.8 0 0 0-1.42-1.42 2 2 0 0 0-.84-.11 3 3 0 0 0-.8.16 3 3 0 0 0-1.25.91l-.01.02a2 2 0 0 0-.64-.66 3 3 0 0 0-.54-.32 2 2 0 0 0-.82-.11 2.7 2.7 0 0 0-1.44.5v-.02l-.02-.08-.07-.18a.4.4 0 0 0-.15-.19.5.5 0 0 0-.3-.08zm25.32 0q-.46.03-.86.2-.54.24-.91.66t-.57.94-.18 1.01q0 .45.08.9.09.47.32.87.25.4.7.7t1.2.4q.42.09.89.04.46-.05.84-.14l.63-.17.23-.08.03-.02.1-.1q.03-.05.05-.14t-.04-.2a.3.3 0 0 0-.15-.17.5.5 0 0 0-.32-.07h-.06l-.15.04a7 7 0 0 1-1.82.16q-.49-.04-.8-.23-.33-.18-.49-.48-.17-.3-.2-.61h.15a9 9 0 0 1 .95.04 17 17 0 0 0 1.18 0q.28-.02.46-.05.6-.15.89-.5.3-.4.3-.95 0-.3-.1-.64a1.7 1.7 0 0 0-.95-1.14 3 3 0 0 0-1.4-.26m-53.6.05h-.07l-.26.1a.3.3 0 0 0-.11.13l-.05.12v.06l.24 1.14q.08.38.1.74a3 3 0 0 1-.28 1.56q-.18.33-.5.54a1.2 1.2 0 0 1-.91.13 1 1 0 0 1-.45-.25q-.2-.19-.37-.49a3 3 0 0 1-.28-1.22q-.04-.78.09-1.73l-.01-.08-.03-.2-.14-.2a1 1 0 0 0-.29-.16.6.6 0 0 0-.36 0l-.19.14-.09.17v.08q-.12.71-.13 1.34t.1 1.23q.09.48.27.84a3 3 0 0 0 .88 1.11q.27.19.55.32.42.13.82.13a2.6 2.6 0 0 0 2.06-.93 3 3 0 0 0 .56-1.59 5 5 0 0 0-.65-2.75l-.08-.07-.2-.15a.4.4 0 0 0-.21-.06m14.78.8q.46 0 .8.2.37.18.57.6a2.2 2.2 0 0 1 .07 1.74 2 2 0 0 1-.96 1.01 1.6 1.6 0 0 1-1.44-.07q-.33-.21-.53-.59a2.2 2.2 0 0 1 .3-2.26q.24-.3.54-.46.32-.18.65-.18m25.83 0q.46 0 .8.2.37.18.57.6a2.2 2.2 0 0 1 .06 1.74 2 2 0 0 1-.95 1.01 1.6 1.6 0 0 1-1.44-.07q-.34-.21-.53-.59a2.2 2.2 0 0 1 .3-2.26q.24-.3.54-.46.32-.18.65-.18m6.64 0q.45 0 .8.2.36.18.57.6a2.2 2.2 0 0 1 .06 1.74 2 2 0 0 1-.95 1.01 1.6 1.6 0 0 1-1.44-.07q-.34-.21-.53-.59a2.2 2.2 0 0 1 .3-2.26q.24-.3.54-.46.31-.18.65-.18m6.66 0q.38.01.6.1.32.12.45.37.14.27.14.65 0 .24-.08.4a1 1 0 0 1-.2.23l-.24.12-.19.06h-.08l-2.19.03q-.03-.22.06-.54t.28-.63.49-.53.7-.25zm-41.52 7.05a1 1 0 0 0-.3.06 1 1 0 0 0-.23.2l-.11.21-.02.09a58 58 0 0 0-.14 2.2l-1.14.01-.5.04-.08.03-.18.08a.4.4 0 0 0-.18.17.5.5 0 0 0-.05.3q.02.24.15.37.14.12.3.18t.28.08l.13.02 1.23.03a77 77 0 0 0 .05 4.3q.05.9.11 1.62l.04.1.13.24q.1.14.28.25t.44.1a1 1 0 0 0 .4-.1q.14-.1.2-.21l.07-.22.04-.1a65 65 0 0 1-.1-5.83v-.12l1.64.02h.1q.12 0 .25-.06t.24-.18a.7.7 0 0 0 .05-.74 1 1 0 0 0-.21-.22 1 1 0 0 0-.26-.11l-.23-.07-.09-.01h-1.47l.01-.42q.03-.89.08-1.52l-.03-.12-.1-.26a1 1 0 0 0-.23-.26 1 1 0 0 0-.44-.14zm9.73 0a.6.6 0 0 0-.55.26l-.1.21-.01.09a58 58 0 0 0-.2 5.83l.05 1.94q.05.91.11 1.62l.02.12q.03.1.12.25.07.13.24.24t.45.1a1 1 0 0 0 .44-.1q.15-.1.18-.2l.05-.1-.05-.94.11.14q.47.54 1.17.87.72.31 1.7.31a4 4 0 0 0 2.92-1.18q.57-.56.9-1.28.33-.74.33-1.56 0-1.05-.3-1.8a3.5 3.5 0 0 0-2.06-2.08q-.72-.26-1.57-.28-.88 0-1.62.31a3.5 3.5 0 0 0-1.55 1.2l.05-1.57q.05-.92.12-1.58l-.04-.12-.1-.26a1 1 0 0 0-.24-.28 1 1 0 0 0-.44-.15zm32.5.03a1 1 0 0 0-.42.1.5.5 0 0 0-.22.21l-.08.22-.02.08a55 55 0 0 0-.18 3.74l-.01 2.04q0 1.02.05 1.94.05.9.11 1.61l.03.12.12.24q.1.14.26.25t.43.1a1 1 0 0 0 .43-.08 1 1 0 0 0 .23-.22l.08-.23.02-.1-.09-1.72-.03-1.96v-2l.05-1.86q.03-.88.1-1.56v-.08l-.03-.23a1 1 0 0 0-.14-.26 1 1 0 0 0-.24-.23 1 1 0 0 0-.45-.12m-5.38.07-.14.01q-.39 0-.73.22-.33.2-.64.67-.3.45-.64 1.15-.3.69-.66 1.68-.44 1.54-.75 3.05-.32 1.52-.38 2.96v.11a1 1 0 0 0 .34.56q.17.14.5.18.3.05.46-.03.18-.08.26-.2.09-.1.12-.2l.03-.1q.03-.6.09-1.13l.5-.06q.64-.09 1.33-.08a14 14 0 0 1 2.06.1l.18 1.06.03.1.15.25q.1.13.28.23.18.08.46.08a1 1 0 0 0 .42-.08q.15-.1.22-.21l.06-.22.02-.1q-.1-1.06-.3-2.15t-.4-2.05a26 26 0 0 0-.83-3.03 6 6 0 0 0-1.02-2.1q-.3-.36-.59-.53a1 1 0 0 0-.43-.14m-.06 1.92q.28.6.52 1.3.25.7.48 1.62a24 24 0 0 1 .58 2.73 17 17 0 0 0-3.5.22l.04-.27q.12-.6.28-1.26l.36-1.47a12 12 0 0 1 .74-2q.25-.5.5-.87m-44.52.44q-.85 0-1.59.35a4.2 4.2 0 0 0-2.46 3.88q0 .82.27 1.54.29.72.8 1.27a3.8 3.8 0 0 0 2.79 1.14 4 4 0 0 0 1.6-.32q.78-.33 1.37-.9a4 4 0 0 0 1.27-2.85q0-1.05-.32-1.82-.3-.8-.85-1.29-.54-.5-1.28-.75a5 5 0 0 0-1.6-.25m-12.02.03a1 1 0 0 0-.32.09 1 1 0 0 0-.23.2l-.08.2-.01.1-.14 1.86a31 31 0 0 0 .14 5.11l.03.09.15.21q.09.12.24.21.16.1.4.1a.7.7 0 0 0 .42-.08q.15-.1.22-.21l.1-.23.01-.1-.1-1.84-.01-1.71v-.08l.01-.09q.14-.6.45-1.11.3-.53.87-.9.47-.3.95-.3.48-.03.92.24t.77.87q.37.65.4 1.8.05 1.13-.13 2.5v.14q0 .12.06.28.05.15.2.3t.43.23q.34.06.52 0a.6.6 0 0 0 .28-.22l.13-.24.04-.12q.16-1.07.18-1.97a6 6 0 0 0-.56-3 4 4 0 0 0-2.09-2.1q-.6-.2-1.21-.16a4 4 0 0 0-2.1.73v-.02l-.04-.12-.1-.26a.6.6 0 0 0-.23-.28 1 1 0 0 0-.44-.11zm45.53.15q-.31 0-.46.12a1 1 0 0 0-.18.24l-.04.12q.17.86.25 1.7.08.64.12 1.3 0 .64-.2 1.2t-.63 1q-.4.4-.95.67a2.6 2.6 0 0 1-1.6.16 2.3 2.3 0 0 1-1.2-.97q-.25-.36-.4-.97-.13-.61-.13-1.46 0-.87.13-1.94v-.08l-.04-.23a1 1 0 0 0-.11-.27 1 1 0 0 0-.26-.24 1 1 0 0 0-.46-.15.8.8 0 0 0-.71.3l-.13.21-.03.08a16 16 0 0 0-.2 2.58q.03.6.16 1.22.15.75.5 1.36a4.6 4.6 0 0 0 2.12 1.9q.9.33 1.77.25a4.3 4.3 0 0 0 2.4-1l-.03.77q-.06.7-.32 1.19-.23.49-.74.74-.49.24-1.26.28a9 9 0 0 1-2.14-.22q-.52-.13-1.08-.34l-.12-.02h-.24a1 1 0 0 0-.28.1 1 1 0 0 0-.22.3.6.6 0 0 0-.01.36q.06.16.18.26.11.12.2.16l.1.05q.9.44 1.92.63 1.02.21 2.17.14a4 4 0 0 0 2.44-.83q.87-.75 1.07-2.24.09-1.44.08-2.8t-.13-2.64-.4-2.5l-.1-.13a1 1 0 0 0-.29-.24 1 1 0 0 0-.52-.12m-12.13 1.1q.63 0 1.13.27.53.26.84.84.33.55.33 1.47a2.8 2.8 0 0 1-.8 1.98 3 3 0 0 1-.84.64q-.45.23-1 .23-.67 0-1.15-.32a2 2 0 0 1-.76-.88 3 3 0 0 1-.07-2.33q.22-.56.56-.98.36-.42.8-.67a2 2 0 0 1 .96-.25m-21.33.05q.7 0 1.22.3.52.28.82.87a3.2 3.2 0 0 1 .1 2.55 3 3 0 0 1-1.41 1.46q-.46.21-.99.21-.66 0-1.17-.3-.49-.32-.77-.88-.26-.56-.26-1.27 0-.54.2-1.06.2-.53.52-.94.35-.42.79-.67.45-.27.95-.27" font-size="12.34" font-family="Sour Gummy" fill="#fff"/></svg>