<svg xmlns="http://www.w3.org/2000/svg" xmlns:xlink="http://www.w3.org/1999/xlink" viewBox="0 0 672 703" shape-rendering="geometricPrecision" text-rendering="geometricPrecision">
<style>
#eye_open{animation:3s linear infinite forwards eye_open_anima}@keyframes eye_open_anima{0%,100%,50%,68%{opacity:1}51%,67%{opacity:0}}#eye_middle{animation:3s linear infinite forwards eye_middle_anima}@keyframes eye_middle_anima{0%,100%,50%,53%,65%,68%{opacity:0}51%,52%,66%,67%{opacity:1}}#eye_closed{animation:3s linear infinite forwards eye_closed_anima}@keyframes eye_closed_anima{0%,100%,52%,66%{opacity:0}53%,65%{opacity:1}}#bang{animation:3s linear infinite forwards bang_anima}@keyframes bang_anima{0%,100%{transform:translate(189.922058px,126.611855px) rotate(2.939695deg)}66%{transform:translate(189.922058px,126.611855px) rotate(-.966399deg)}}#ear_hair{animation:3s linear infinite forwards ear_hair_anima}@keyframes ear_hair_anima{0%,100%{transform:translate(267.764px,237.394461px) rotate(-3.060998deg)}66%{transform:translate(267.764px,237.394461px) rotate(1.357635deg)}}#back_hair{animation:3s linear infinite forwards back_hair_anima}@keyframes back_hair_anima{0%,100%{transform:translate(360.613403px,329.290223px) rotate(.774522deg)}66%{transform:translate(360.613403px,329.290223px) rotate(-2.196711deg)}}
</style>    
<defs><linearGradient id="cuty_grad-fill" x1="211.543" y1="270.585" x2="211.025612" y2="256.152178" spreadMethod="pad" gradientUnits="userSpaceOnUse" gradientTransform="translate(0 0)"><stop id="cuty_grad-fill-0" offset="0%" stop-color="#ffea40"/><stop id="cuty_grad-fill-1" offset="57%" stop-color="#e80088"/><stop id="cuty_grad-fill-2" offset="100%" stop-color="#3c0373"/></linearGradient><linearGradient id="eyQVHkU4FBK32-fill" x1="211.543" y1="270.585" x2="211.025612" y2="256.152178" spreadMethod="pad" gradientUnits="userSpaceOnUse" gradientTransform="translate(0 0)"><stop id="eyQVHkU4FBK32-fill-0" offset="0%" stop-color="#ffea40"/><stop id="eyQVHkU4FBK32-fill-1" offset="57%" stop-color="#e80088"/><stop id="eyQVHkU4FBK32-fill-2" offset="100%" stop-color="#3c0373"/></linearGradient><linearGradient id="eyQVHkU4FBK48-stroke" x1="-271.6552" y1="-304.725" x2="282.1448" y2="249.075" spreadMethod="pad" gradientUnits="userSpaceOnUse" gradientTransform="translate(0 0)"><stop id="eyQVHkU4FBK48-stroke-0" offset="0%" stop-color="#ffea40"/><stop id="eyQVHkU4FBK48-stroke-1" offset="57%" stop-color="#e80088"/><stop id="eyQVHkU4FBK48-stroke-2" offset="100%" stop-color="#3c0373"/></linearGradient><linearGradient id="eyQVHkU4FBK49-fill" x1="0.5" y1="0" x2="0.5" y2="1" spreadMethod="pad" gradientUnits="objectBoundingBox" gradientTransform="translate(0 0)"><stop id="eyQVHkU4FBK49-fill-0" offset="0%" stop-color="rgba(255,255,255,0)"/><stop id="eyQVHkU4FBK49-fill-1" offset="100%" stop-color="#010022"/></linearGradient></defs>
<g transform="translate(0 0.168922)" clip-rule="evenodd"><path d="M249.49,639.745c9.098-4.501,19.187-10.127,30.304-17.149c39.003-24.634,103.653-109.529,125.693-130.19c18.965-17.779,33.218-34.557,44.948-45.342c6.942,4.979,12.538,9.52,13.884,10.435c43.199,29.362,77.246,72.206,102.521,112.956-58.054,61.209-140.14,99.405-231.077,99.405-31.09,0-61.146-4.465-89.56-12.787.905-5.097,1.989-10.85,3.287-17.328Z" clip-rule="evenodd" fill="#e80088" fill-rule="evenodd" stroke-linecap="round" stroke-linejoin="round" stroke-miterlimit="1.5"/><path d="M249.49,639.745c2.717-13.563,6.373-30.306,11.291-50.869c1.853-7.751,7.866-42.975,19.714-59.475c10.394-14.475,11.93-26.589,12.474-29.891c2.663-16.161-36.919-74.244-42.974-79.843-8.109-7.497-59.874-13.441-69.461-24.594-14.414-16.767-.961-33.181-5.71-37.93-7.222-7.223-2.574-6.933,1.184-16.326c1.797-4.493-6.186-4.169-2.729-20.774c1.165-5.599.787-5.322-2.367-6.543-4.585-1.775-16.006-.01-22.416-10.261-4.919-7.868,7.815-22.539,20.861-37.555c7.693-8.856,15.78-18.214,14.413-25.051-2.442-12.208-12.556-35.839-9.368-51.852c5.268-26.454,26.846-44.496,39.245-56.896c1.288-2.253,56.957-2.291,75.081,46.039c23.233,61.955,16.322,67.847,35.812,77.592c1.085.542,9.99,6.479,10.852,7.054c8.304,5.535,38.584,20.795,53.717,66.197c4.795,14.382-1.151,17.098,5.426,43.408.328,1.311,4.188,42.458,29.983,60.547c7.189,1.676,17.534,8.329,25.917,14.342-11.73,10.785-25.983,27.563-44.948,45.342-22.04,20.661-86.69,105.556-125.693,130.19-11.117,7.022-21.206,12.648-30.304,17.149Z" clip-rule="evenodd" fill="#edac81" fill-rule="evenodd" stroke-linecap="round" stroke-linejoin="round" stroke-miterlimit="1.5"/><path d="M397.247,663.919c11.433-46.349,36.861-108.278,93.995-107.024c25.48.559,44.988,12.115,59.811,29.094-42.333,38.872-95.201,66.449-153.806,77.93Z" clip-rule="evenodd" fill="#edac81" fill-rule="evenodd" stroke-linecap="round" stroke-linejoin="round" stroke-miterlimit="1.5"/><path d="M315.045,302.674c-4.87-1.181-8.022-31.478-20.408-48.716-6.19-8.614-26.118-9.463-26.873-10.788-7.585-2.937-17.207-8.074-17.887-8.441-6.902-4.435-12.753-9.648-17.664-15.044-3.634-2.973-7.335-6.52-10.961-10.75-2.797-3.263-16.619999-9.112999-18.278-11.894998C167.279001,211.946003,165.083,168.018,185.385,128.474c.008-.015.031-.013.047-.019c20.949-15.96,44.769-22.721,45.133-22.964c15.384-10.256,71.887-26.051,122.911-20.664c10.677.012,21.781.618,33.293,1.932c49.179,5.614,80.429,45.159,97.141,70.442c12.253,18.535,20.374,36.442,25.188,53.571c7.422,6.089,12.798,15.457,16.446,24.978.573,1.496,2.773,7.471,3.361,11.118.732,4.533.588,10.835-.11,17.55.289,1.076,13.911,25.133,7.842,39.125c2.026,4.09-38.403,35.321-82.222,47.837-50.366,14.387-105.211,9.97-105.211,9.97c2.52-3.502,44.572-53.694,43.436-58.994-2.996-13.971-30.661-24.052-38.239-20.491-10.863,5.104-17.506,26.105-39.356,20.809Zm196.308-82.861c.495,2.274.932,4.534,1.314,6.778c7.159,7.761,11.755,18.465,14.364,29.059-.16-4.169-.613-7.663-1.384-10.009-2.622-7.984-7.522-18.44-14.294-25.828Z" clip-rule="evenodd" fill="#3c0373" fill-rule="evenodd" stroke-linecap="round" stroke-linejoin="round" stroke-miterlimit="1.5"/><path d="M373.837,202.669c3.111-19.218,14.169-22.083,23.511-20.061c9.343,2.022,16.421,9.723,14.95,23.69-.767,10.309-13.176,18.8-17.47,39.006-20.955-9.502-26.82-4.2-37.097-7.533-14.775-4.792-18.822-19.77-14.727-28.407c4.094-8.637,15.277-18.16,30.833-6.695Z" clip-rule="evenodd" fill="#e80088" fill-rule="evenodd" stroke-linecap="round" stroke-linejoin="round" stroke-miterlimit="1.5"/><path d="M393.896,186.378c5.266.059,9.569,2.495,9.601,5.438.033,2.942-4.217,5.283-9.484,5.224s-9.569-2.496-9.601-5.438c-.033-2.943,4.217-5.284,9.484-5.224Z" clip-rule="evenodd" fill="#fff" fill-rule="evenodd" stroke-linecap="round" stroke-linejoin="round" stroke-miterlimit="1.5"/><path d="M404.028,199.362c1.658.019,3.018,1.316,3.035,2.895.017,1.578-1.314,2.845-2.972,2.826-1.658-.018-3.018-1.315-3.036-2.894-.017-1.579,1.315-2.845,2.973-2.827Z" clip-rule="evenodd" fill="#fff" fill-rule="evenodd" stroke-linecap="round" stroke-linejoin="round" stroke-miterlimit="1.5"/><path d="M284.538,390.201c13.009-4.475,19.252-9.925,23.987-14.242.907-.827,10.345-7.69,13.146-16.569-1.37,10.699-10.815,18.403-11.123,18.708-2.759,2.729-9.918,9.341-26.01,12.103Z" clip-rule="evenodd" fill="#e08e58" fill-rule="evenodd" stroke-linecap="round" stroke-linejoin="round" stroke-miterlimit="1.5"/><path d="M227.732,255.125c-1.015-.619-8.396-5.714-10.258-6.963-4.074-2.731-8.676-3.246-11.505-2.283c1.469-.886,5.687-3.308,12.02.066c5.561,2.963,8.031,7.331,9.743,9.18Z" clip-rule="evenodd" fill="#e08e58" fill-rule="evenodd" stroke-linecap="round" stroke-linejoin="round" stroke-miterlimit="1.5"/><path d="M242.275,248.675c0,0-5.093-10.926-17.368-17.496-3.72-1.991-18.355-3.738-27.738-5.055-2.718-.381-4.788,8.395-3.573,9.823c1.51,1.774,26.924.962,28.904,1.754c8.675,3.47,19.775,10.974,19.775,10.974Z" clip-rule="evenodd" fill="#3c0373" fill-rule="evenodd" stroke-linecap="round" stroke-linejoin="round" stroke-miterlimit="1.5"/><path d="M185.025,293.63c.701,4.68.57,4.841,3.388,8.566.187.247,2.099,2.013,1.376,5.901-.707,3.794-3.992,7.448-8.251,5.787-2.007-.782-4.494-1.779-7.136-2.434-2.236-.555-2.726-.211-3.137-.619.755.52,1.002-.682,8.62,1.112c2.262.533,4.189,1.519,6.173-.686c1.682-1.867,2.484-5.734,1.527-7.391-2.708-4.689-2.78-4.827-2.56-10.236Z" clip-rule="evenodd" fill="#e08e58" fill-rule="evenodd" stroke-linecap="round" stroke-linejoin="round" stroke-miterlimit="1.5"/><path d="M173.014,324.046c0,0-9.523,8.259,5.538,20.308c4.237,3.389,12.726,6.744,13.975,6.923c1.16.165-1.254-.479-12.949-14.513-5.01-6.012-5.393-9.206-6.564-12.718Z" clip-rule="evenodd" fill="#e80088" fill-rule="evenodd" stroke-linecap="round" stroke-linejoin="round" stroke-miterlimit="1.5"/><path d="M174.04,339.841c-2.325,1.162-7.179,5.053-5.283,10.35c2.606,7.282,8.148,5.81,23.983,1.195-5.615-1.871-18.7-11.545-18.7-11.545Z" clip-rule="evenodd" fill="#980059" fill-rule="evenodd" stroke-linecap="round" stroke-linejoin="round" stroke-miterlimit="1.5"/><ellipse rx="2.344" ry="1.33" transform="translate(177.099 350.31)" clip-rule="evenodd" fill="#fff" fill-rule="evenodd" stroke-linecap="round" stroke-linejoin="round" stroke-miterlimit="1.5"/><path d="M192.182,345.373c2.416,6.862,2.1,11.564,2.138,13.059-1.038-1.764-1.765-4.071-1.965-4.856-.637-2.502-.288-6.505-.174-8.179.001-.004.001-.021.001-.024Z" clip-rule="evenodd" fill="#e08e58" fill-rule="evenodd" stroke-linecap="round" stroke-linejoin="round" stroke-miterlimit="1.5"/><path d="M340.91,292.675c45.679-48.597,62.911-1.631,53.325,20.825-2.842,6.658-16.841,41.998-52.64,47.964-5.971.995-9.847,2.678-18.474-10.263" clip-rule="evenodd" fill="#edac81" fill-rule="evenodd" stroke-linecap="round" stroke-linejoin="round" stroke-miterlimit="1.5"/><circle r="5.59" transform="translate(335.772 349.408)" clip-rule="evenodd" fill="#e80088" fill-rule="evenodd" stroke-linecap="round" stroke-linejoin="round" stroke-miterlimit="1.5"/><path d="M332.641,346.126c1.148-1.21,2.806-1.504,3.699-.656s.686,2.518-.462,3.728-2.805,1.503-3.698.656c-.894-.848-.687-2.518.461-3.728Z" clip-rule="evenodd" fill="#fff" fill-rule="evenodd" stroke-linecap="round" stroke-linejoin="round" stroke-miterlimit="1.5"/><path d="M354.951,295.551c-1.03,1.461-1.47,2.909-.859,4.151.014.027,3.607,6.086-1.249,8.34-1.496.694-3.249.694-4.242.741-2.338.543-3.566,1.251-2.073,3.99.586,1.075,1.274,1.63,1.857,3.776c2.281,8.401-9.442,10.866-8.412,13.528.404,1.045,3.614,4.401,7.868,4.375c7.17-.043,11.677-7.873,11.954-9.951.448-3.363-5.189-3.317-2.315-6.302.643-.668,3.968-3.411,4.223-3.589-2.598,2.119-4.597,5.2-3.011,6.312c1.741,1.22,3.002,2.025,1.102,6.059-4.79,10.166-14.601,11.911-20.842,5.609-3.76-3.796.742-6.692,2.537-8.065c1.592-1.218,3.51-2.682,4.087-4.516.569-1.81-.287-3.473-.619-4.168-.259-.343-4.285-5.488-.379-8.535.101-.079,1.166-.987,3.498-1.423c1.09-.204,4.56.322,4.537-1.892-.027-2.465-2.147-3.789-1.104-7.298c2.663-8.96,12.557-10.864,15.293-11.33c17.479-2.979,18.641,11.221,15.54,20.847-.346,1.073-.82,2.064-.903,2.239.016-.042-.078.161-.063.119.039-.104.191-.369.504-1.305c1.713-5.127,4.497-24.44-14.961-20.026-2.036.463-6.781,3.077-9.967,6.069c9.32,3.482,10.192,14.324,10.857,16.293-1.175-2.275-3.335-12.372-12.858-14.048Zm10.556-7.03c.278.008,2.114-.177,4.896,2.411c3.088,2.874,7.36,9.739,5.438,18.016-1.676,7.217-7.459,9.635-7.7,9.758c3.838-3.138,7.596-8.372,3.982-20.699-.742-2.531-1.747-4.716-2.879-6.389-1.83-2.705-3.494-3.022-3.737-3.097Z" clip-rule="evenodd" fill="#e08e58" fill-rule="evenodd" stroke-linecap="round" stroke-linejoin="round" stroke-miterlimit="1.5"/><path d="M189.644,536.279c-.65.99-1.333,1.963-2.05,2.919-1.265,1.635-2.61,3.032-4.033,4.191-1.371,1.16-2.741,1.74-4.112,1.74-.738,0-1.476-.185-2.214-.554-.685-.421-1.318-.948-1.898-1.581-.579-.633-1.027-1.344-1.344-2.135-.369-.791-.553-1.581-.553-2.372c0-1.476.158-3.005.474-4.586.316-1.635.765-3.216,1.344-4.745.528-1.581,1.186-3.084,1.977-4.507.791-1.476,1.634-2.82,2.531-4.033.632-.843,1.37-1.529,2.214-2.056.843-.58,1.792-.87,2.846-.87.633,0,1.16.159,1.582.475.421.263.632.685.632,1.265s-.211,1.239-.632,1.977c-.369.685-.686,1.291-.949,1.819-1.213,2.214-2.293,4.48-3.242,6.8-.896,2.267-1.634,4.639-2.214,7.117-.106.421-.237.869-.396,1.344-.105.421-.158.843-.158,1.265c0,.527.132,1.028.396,1.502.738,0,1.449-.263,2.135-.79.738-.528,1.423-1.186,2.056-1.977.685-.791,1.317-1.634,1.897-2.531.58-.896,1.134-1.713,1.661-2.451.369-.474.791-1.081,1.265-1.819.527-.79,1.028-1.528,1.502-2.214.505-.706.985-1.315,1.441-1.828.463-1.494.905-2.966,1.327-4.418.474-1.687.738-3.321.791-4.903.052-1.265.632-2.293,1.739-3.084c1.107-.843,2.504-1.265,4.191-1.265.738,0,1.344.211,1.819.633.474.369.712.843.712,1.423c0,.632-.185,1.555-.554,2.767-.316,1.16-.712,2.373-1.186,3.638s-.975,2.477-1.502,3.637c-.528,1.16-.976,2.003-1.345,2.531l.317.237c0,.053-.053.132-.159.237c0-.053-.026.026-.079.237-.052.158-.105.369-.158.633-.052.211-.132.422-.237.632-.053.211-.079.343-.079.396.949-1.265,1.871-2.662,2.768-4.191.896-1.582,1.845-3.058,2.846-4.428c1.002-1.424,2.135-2.689,3.4-3.796c1.266-1.107,2.768-1.871,4.508-2.293.263-.053.474-.079.632-.079.211-.053.422-.079.633-.079c1.212,0,2.187.448,2.925,1.344.791.844,1.187,2.03,1.187,3.559c0,1.054-.159,2.003-.475,2.846c0,.896-.343,2.056-1.028,3.479-.632,1.371-1.37,2.821-2.214,4.349-.791,1.476-1.529,2.926-2.214,4.349-.633,1.371-.949,2.504-.949,3.401c0,.949.448,1.502,1.344,1.66c1.371-.949,2.557-1.924,3.559-2.926c1.001-1.054,1.897-2.108,2.688-3.162.791-1.107,1.503-2.188,2.135-3.242.685-1.108,1.397-2.135,2.135-3.084.527-.686,1.002-1.397,1.423-2.135.422-.738,1.081-1.45,1.977-2.135l.008.026c.202-.276.41-.549.625-.817c1.529-1.898,3.268-3.427,5.219-4.586c2.003-1.213,4.059-1.819,6.167-1.819c1.951,0,3.875.448,5.773,1.344.58-.474,1.212-1.001,1.898-1.581.738-.633,1.476-.949,2.214-.949.316,0,.659.079,1.028.237.421.106.817.29,1.186.554.421.211.764.5,1.028.869.263.369.395.765.395,1.187c0,.369-.132.817-.395,1.344-.211.474-.448.896-.712,1.265-.58,1.318-1.16,2.583-1.74,3.796-.527,1.159-1.054,2.345-1.581,3.558-.475,1.16-.923,2.372-1.344,3.637-.369,1.213-.712,2.531-1.028,3.954-.264.738-.448,1.37-.554,1.898-.053.527-.079.975-.079,1.344c0,1.001.316,1.502.949,1.502.369,0,.817-.158,1.344-.474.58-.369,1.16-.817,1.74-1.344.58-.58,1.133-1.187,1.66-1.819.528-.685,1.002-1.344,1.424-1.977.369-.58.817-1.291,1.344-2.135l1.74-2.688c.632-.949,1.212-1.845,1.739-2.689.58-.896,1.055-1.66,1.424-2.293.21-.316.448-.29.711.079.316.316.527.606.633.87c0,.211-.053.527-.158.949-.791,1.739-1.74,3.637-2.847,5.693-1.054,2.003-2.24,3.875-3.558,5.614-1.318,1.687-2.768,3.11-4.349,4.27-1.582,1.16-3.269,1.74-5.061,1.74-1.16,0-2.135-.369-2.926-1.107-.738-.791-1.634-1.872-2.688-3.242-1.371,1.107-2.847,2.161-4.428,3.163-1.582,1.001-3.137,1.502-4.666,1.502-.738,0-1.502-.211-2.293-.633-.738-.474-1.423-1.08-2.056-1.818-.632-.791-1.133-1.713-1.502-2.768-.422-1.107-.633-2.293-.633-3.558c0-.431.018-.862.054-1.295-.953,1.552-1.973,3.038-3.059,4.458-1.317,1.792-2.714,3.321-4.19,4.586-1.424,1.213-2.794,1.819-4.112,1.819-1.371,0-2.636-.58-3.796-1.74s-1.739-2.715-1.739-4.665c.158-3.321.922-6.458,2.293-9.41c1.423-3.005,2.978-6.036,4.665-9.093-.264-.317-.553-.475-.87-.475-.105,0-.211.027-.316.079l-.316.158c-3.111,2.794-5.72,5.931-7.829,9.41-2.108,3.427-3.532,7.09-4.27,10.991-.158.897-.369,1.74-.632,2.531-.264.79-.765,1.186-1.503,1.186-.421,0-.869-.106-1.344-.316-.422-.211-.817-.475-1.186-.791-.422-.316-.791-.633-1.107-.949-.316-.369-.501-.685-.553-.949-.686-.527-1.028-1.608-1.028-3.242c0-.852.05-1.694.152-2.524Zm51.324-15.188c-.369-.211-.79-.317-1.265-.317-.949,0-2.161.58-3.637,1.74-1.423,1.107-2.847,2.53-4.27,4.27-1.371,1.687-2.557,3.532-3.558,5.535-1.002,2.003-1.503,3.901-1.503,5.693c0,1.687.765,2.689,2.293,3.005c1.476-.738,2.742-1.529,3.796-2.372c1.054-.896,2.056-1.951,3.005-3.163.158-1.054.421-2.214.79-3.479.422-1.318.897-2.61,1.424-3.875.527-1.318,1.054-2.583,1.581-3.795.527-1.213.975-2.294,1.344-3.242Zm-109.912-3.559c1.687-3.215,3.321-6.326,4.903-9.33c1.634-3.005,3.216-6.01,4.744-9.015.264-.474.527-1.054.791-1.739.264-.738.422-1.345.474-1.819c0-.896-.289-1.371-.869-1.423-.527-.053-1.081-.079-1.661-.079-.158,0-.316.026-.474.079h-.475c-5.798,1.476-9.937,4.586-12.414,9.33-.264.422-.396.976-.396,1.661v.632c0,.264.106.501.317.712.21.158.527.237.949.237.948,0,1.845-.5,2.688-1.502.896-1.054,1.845-2.188,2.847-3.4.105.369.184.685.237.949.105.211.158.395.158.553c0,.738-.264,1.45-.791,2.135-.474.633-1.08,1.186-1.818,1.661-.686.474-1.397.869-2.135,1.186-.686.263-1.239.395-1.661.395-1.054,0-1.898-.29-2.53-.87-.633-.632-.949-1.476-.949-2.53.105-2.003.738-3.901,1.898-5.693c1.212-1.845,2.688-3.453,4.428-4.824c1.792-1.37,3.769-2.451,5.93-3.242c2.214-.791,4.349-1.186,6.405-1.186c1.687,0,3.058.422,4.112,1.265c1.054.791,1.74,1.951,2.056,3.48.053.421.079.738.079.948.053.211.316.554.791,1.028c1.739-1.054,3.374-1.897,4.902-2.53c1.582-.685,3.427-1.028,5.535-1.028c2.583,0,4.745.58,6.484,1.74c1.793,1.159,3.216,2.662,4.27,4.507c1.107,1.845,1.898,3.901,2.373,6.168.474,2.266.711,4.48.711,6.642c0,5.957-1.186,11.544-3.558,16.763s-5.377,10.069-9.014,14.55c-3.163,3.532-6.748,6.247-10.754,8.144-4.007,1.898-8.277,2.847-12.81,2.847-4.27,0-7.96-.659-11.071-1.977-3.11-1.265-5.693-2.926-7.749-4.981-2.003-2.004-3.505-4.218-4.507-6.643s-1.502-4.77-1.502-7.037c0-3.743,1.054-6.959,3.163-9.647c2.108-2.741,5.192-4.718,9.251-5.931c1.054-.263,2.135-.474,3.242-.632c1.16-.158,2.293-.343,3.4-.554Zm3.954,21.983c-.527-.106-1.002-.211-1.423-.317-.369-.105-.659-.237-.87-.395-1.213-1.265-2.082-2.53-2.61-3.795-.527-1.318-.79-2.794-.79-4.429c0-1.423.105-2.846.316-4.27.264-1.423.395-2.82.395-4.19c0-.475-.105-.923-.316-1.345-4.586.527-7.96,1.977-10.121,4.349-2.162,2.32-3.242,5.114-3.242,8.382c0,2.425.448,4.613,1.344,6.563.896,1.898,2.109,3.532,3.637,4.903c1.529,1.318,3.295,2.319,5.298,3.005c2.003.738,4.112,1.107,6.326,1.107c2.53,0,4.824-.264,6.879-.791c2.109-.475,4.06-1.186,5.852-2.135c1.792-.896,3.453-2.003,4.982-3.321c1.581-1.318,3.11-2.82,4.586-4.507c3.215-4.059,5.825-8.567,7.828-13.522c2.056-5.008,3.084-10.069,3.084-15.182c0-1.74-.132-3.347-.395-4.824-.211-1.528-.607-2.846-1.187-3.953-.527-1.107-1.291-1.977-2.293-2.61-.949-.632-2.135-.948-3.558-.948-1.476,0-3.057.369-4.744,1.107-1.635.685-3.216,1.607-4.745,2.767-1.476,1.107-2.794,2.399-3.953,3.875-1.16,1.423-1.977,2.846-2.452,4.27-.58,1.687-1.239,3.321-1.977,4.902-.738,1.582-1.397,3.242-1.976,4.982c1.476.949,2.873,1.924,4.19,2.926c1.318,1.001,2.478,2.055,3.48,3.163c1.001,1.107,1.792,2.293,2.372,3.558.58,1.212.87,2.557.87,4.033c0,.738-.237,1.555-.712,2.451-.422.896-1.133,1.344-2.135,1.344-.632,0-1.133-.184-1.502-.553-.369-.422-.659-.897-.87-1.424-.158-.58-.264-1.16-.316-1.739v-1.582c0-1.581-.422-3.005-1.266-4.27-.843-1.318-1.924-2.557-3.242-3.716-.263-.158-.579-.29-.948-.396-.369-.105-.765-.237-1.187-.395-1.054,2.741-1.766,5.509-2.135,8.303-.316,2.741-.474,5.614-.474,8.619Zm55.557-40.907c4.602-4.387,7.69-2.811,9.397-.313s1.749,6.009-1.417,9.364c-2.264,2.543-6.799,2.159-11.87,6.557-2.822-6.906-5.226-6.75-6.879-9.788-2.377-4.369-.256-9.151,2.423-10.555c2.68-1.404,7.146-1.548,8.346,4.735Zm-56.223-33.62c-1.172,1.459-2.423,2.932-3.754,4.42-2.353,2.586-4.85,4.926-7.492,7.021-2.601,2.14-5.304,3.879-8.111,5.216-2.766,1.338-5.511,2.006-8.235,2.006-1.858,0-3.55-.312-5.077-.936-1.528-.624-2.849-1.516-3.963-2.675-1.073-1.159-1.919-2.585-2.539-4.279-.578-1.739-.866-3.723-.866-5.952c0-1.427.144-2.898.433-4.413.33-1.561.743-3.121,1.238-4.681.537-1.561,1.115-3.099,1.734-4.615.66-1.515,1.3-2.986,1.919-4.413.207-.312.496-.78.867-1.404.413-.624.681-1.093.805-1.405h-.495c-4.211,0-7.43.625-9.659,1.873-2.188,1.203-3.282,2.764-3.282,4.681c0,.356.062.668.186.936.082.267.124.513.124.736c0,.089-.042.289-.124.601-.083.268-.289.402-.619.402-.289,0-.537-.112-.743-.335-.248-.223-.454-.49-.619-.802-.166-.357-.289-.691-.372-1.003-.124-.357-.186-.669-.186-.936.042-1.828.62-3.299,1.734-4.414c1.115-1.159,2.456-2.051,4.025-2.675c1.609-.668,3.302-1.114,5.077-1.337c1.816-.268,3.405-.446,4.767-.535.743-.045,1.363-.201,1.858-.468.537-.312,1.011-.736,1.424-1.271.991-1.337,2.105-2.652,3.344-3.945c1.238-1.338,2.559-2.564,3.962-3.678c1.445-1.115,2.952-2.073,4.52-2.876c1.569-.802,3.158-1.382,4.768-1.738.784-.357,1.651-.535,2.6-.535.826,0,1.651.134,2.477.401.826.223,1.569.557,2.229,1.003.702.446,1.259.981,1.672,1.605.454.624.681,1.315.681,2.073s-.207,1.471-.619,2.14c-.372.669-.888,1.293-1.548,1.872-1.239,1.07-2.436,2.029-3.591,2.876-1.156.847-2.353,1.605-3.592,2.273-1.238.624-2.559,1.159-3.962,1.605-1.404.401-2.972.714-4.706.936-.949.134-1.734.246-2.353.335-.619.044-1.032.29-1.238.735-.991,1.204-1.961,2.675-2.91,4.414-.908,1.694-1.734,3.499-2.477,5.416s-1.342,3.879-1.796,5.885c-.412,1.962-.619,3.834-.619,5.617c0,1.249.124,2.408.372,3.478.289,1.069.722,2.006,1.3,2.808.578.803,1.321,1.427,2.229,1.873.908.445,2.023.668,3.344.668.99,0,2.105-.134,3.343-.401c2.601-.847,5.119-2.118,7.554-3.812c2.435-1.738,4.747-3.633,6.935-5.684c2.229-2.05,4.313-4.146,6.253-6.286c1.113-1.202,2.181-2.341,3.203-3.416.323-.864.68-1.686,1.07-2.468.866-1.783,1.816-3.232,2.848-4.347c1.073-1.114,2.105-1.672,3.096-1.672.577,0,1.052.156,1.424.468.371.268.557.647.557,1.137c0,.491-.145,1.003-.433,1.538-.248.491-.475.981-.682,1.471-1.073,2.408-2.105,4.748-3.095,7.022-.991,2.274-1.693,4.681-2.106,7.222-.082.357-.123.624-.123.802c0,.491.247.937.743,1.338.577-.178,1.073-.401,1.486-.669.412-.267.784-.557,1.114-.869.372-.312.722-.624,1.053-.936.33-.357.722-.691,1.176-1.003c1.197-.847,2.085-1.851,2.663-3.01.619-1.203,1.155-2.452,1.609-3.744.248-.981.599-2.051,1.053-3.21.495-1.204,1.073-2.296,1.734-3.277.66-1.025,1.382-1.872,2.167-2.541.825-.713,1.713-1.07,2.662-1.07.413,0,.743.134.991.401.289.268.433.58.433.937c0,.312-.062.646-.185,1.003-.124.312-.228.601-.31.869l-1.734,4.012c-.825,1.783-1.527,3.611-2.105,5.484-.537,1.827-.991,3.722-1.362,5.684-.041.223-.083.468-.124.735-.041.223-.062.446-.062.669c0,.579.165,1.159.495,1.739c1.032-.58,1.961-1.427,2.787-2.542.867-1.114,1.692-2.295,2.476-3.544.785-1.293,1.548-2.541,2.291-3.744.123-.207.247-.406.372-.599.26-1.091.549-2.163.867-3.213.619-2.229,1.3-4.324,2.043-6.286.784-2.006,1.486-3.789,2.105-5.35.041-.178.165-.445.372-.802.247-.401.412-.78.495-1.137h-1.919c-.867,0-1.755-.089-2.663-.267-.908-.179-1.713-.469-2.415-.87-.701-.401-1.052-1.047-1.052-1.939c0-.758.474-1.137,1.424-1.137c1.197.223,2.084.424,2.662.602.619.134,1.156.245,1.61.334.454.09.929.156,1.424.201.537.045,1.342.067,2.415.067.454-.758.949-1.65,1.486-2.675.537-1.07,1.115-2.095,1.734-3.076s1.3-1.806,2.043-2.474c.784-.669,1.651-1.003,2.6-1.003.537,0,.97.111,1.301.334.33.223.495.557.495,1.003c0,.178-.021.312-.062.401-.371,1.382-.846,2.653-1.424,3.812-.537,1.159-1.156,2.363-1.857,3.611.123.045.454.067.99.067.784,0,1.837-.022,3.158-.067l4.086-.267c1.404-.09,2.684-.157,3.839-.201c1.197-.089,2.064-.134,2.601-.134h1.919c.248,0,.454.022.619.067.207.045.31.156.31.334c0,.446-.31.803-.929,1.07-.619.268-1.465.491-2.538.669-1.032.178-2.209.312-3.53.401-1.32.089-2.703.201-4.148.335-1.403.089-2.807.2-4.21.334-1.363.134-2.622.29-3.777.468-.826,2.363-1.713,4.77-2.663,7.222-.949,2.452-1.857,4.926-2.724,7.423-.867,2.452-1.61,4.926-2.229,7.423-.619,2.496-.991,4.993-1.115,7.489.083.49.248,1.07.496,1.739.289.668.701,1.003,1.238,1.003.248,0,.433-.045.557-.134c1.239-.312,2.374-.981,3.406-2.006c1.073-1.025,2.043-2.185,2.91-3.477.867-1.338,1.651-2.675,2.353-4.013l.372-.666c.02-2.609.432-5.217,1.238-7.826.784-2.72,1.898-5.172,3.343-7.356.206-.312.392-.669.557-1.07s.331-.758.496-1.07c.206-.357.433-.646.681-.869.289-.223.619-.335.99-.335.248,0,.516.045.805.134.331.089.64.201.929.334.289.134.537.29.743.469.206.178.31.356.31.535c0,.445-.083.913-.248,1.404-.165.446-.33.869-.495,1.27-.496,1.427-1.012,2.787-1.548,4.079-.537,1.249-1.012,2.497-1.424,3.745-.413,1.249-.764,2.519-1.053,3.812-.248,1.293-.371,2.675-.371,4.146c0,.669.165,1.337.495,2.006c1.651-.624,2.972-1.516,3.963-2.675c1.032-1.203,1.878-2.541,2.538-4.012.702-1.471,1.259-3.009,1.672-4.614.454-1.65.908-3.255,1.362-4.815.207-.669.454-1.36.743-2.073s.64-1.36,1.053-1.939c.412-.624.908-1.115,1.486-1.471.578-.402,1.259-.602,2.043-.602.495,0,.929.089,1.3.267.372.179.558.513.558,1.003c0,.357-.104.803-.31,1.338s-.413.981-.619,1.337c-.826,1.65-1.486,3.411-1.982,5.283-.454,1.872-.866,3.723-1.238,5.55-.248,1.427-.578,2.987-.991,4.681-.371,1.694-.825,3.388-1.362,5.083-.495,1.694-1.032,3.321-1.61,4.881s-1.155,2.942-1.733,4.146c1.403.312,2.703.468,3.9.468.909,0,1.734-.089,2.477-.267.784-.179,1.527-.424,2.229-.736s1.404-.691,2.105-1.137c.702-.401,1.445-.847,2.229-1.337.124-.045.331-.067.62-.067.536,0,1.031.134,1.486.401.495.312.743.691.743,1.137c0,.669-.496,1.271-1.486,1.806-.95.535-2.085.98-3.406,1.337s-2.683.624-4.086.802c-1.363.223-2.436.335-3.22.335-1.61,0-3.199-.178-4.768-.535-2.064,3.031-4.21,5.283-6.439,6.754-2.188,1.471-4.809,2.207-7.864,2.207-1.032,0-1.96-.201-2.786-.602-.825-.401-1.527-.936-2.105-1.605-.619-.669-1.073-1.427-1.362-2.274-.33-.802-.496-1.627-.496-2.474c0-2.006.785-3.633,2.353-4.882c1.569-1.248,3.633-1.872,6.192-1.872c1.403,0,2.766.156,4.087.468c1.362.312,2.827.624,4.396.936.412-.445.825-1.136,1.238-2.073.454-.891.846-1.85,1.176-2.875.331-1.025.599-2.051.805-3.076.248-1.07.372-2.006.372-2.809c0-.134-.021-.267-.062-.401v-.334c-.495.312-.97.758-1.424,1.337-.454.535-.929,1.07-1.424,1.605-.496.535-1.032,1.003-1.61,1.404-.578.357-1.238.535-1.981.535-.785,0-1.445-.2-1.982-.602-.536-.445-.97-.98-1.3-1.605-.208-.42-.375-.868-.501-1.341-.554.927-1.13,1.842-1.728,2.746-.784,1.203-1.651,2.34-2.601,3.41-.949,1.115-2.022,2.118-3.219,3.009-.372.268-.785.468-1.239.602-.412.179-.908.268-1.486.268-2.022,0-3.57-.691-4.643-2.073-1.074-1.338-1.61-3.366-1.61-6.086c0-1.65.119-3.313.359-4.987-1.136,1.689-2.308,3.419-3.517,5.188-.454.624-1.053,1.181-1.796,1.672-.701.446-1.403.669-2.105.669-1.197,0-2.126-.446-2.786-1.338-.619-.936-1.156-2.095-1.61-3.477l-.433-1.271-1.672,1.806c-.578.624-1.197,1.226-1.858,1.805-.66.535-1.32,1.003-1.981,1.405-.66.356-1.3.535-1.919.535-1.569,0-2.807-.58-3.715-1.739-.95-1.204-1.424-2.697-1.424-4.48c0-1.482.157-3,.472-4.554Zm46.337,19.466c-.95-.58-2.002-.936-3.158-1.07-1.156-.089-2.25-.134-3.282-.134-.743,0-1.547.022-2.414.067-.908.089-1.755.245-2.539.468s-1.424.557-1.919,1.003c-.537.491-.805,1.137-.805,1.939c0,.892.392,1.739,1.176,2.542.784.847,1.754,1.27,2.91,1.27c1.115,0,2.167-.178,3.158-.535.949-.357,1.837-.825,2.662-1.404.867-.535,1.652-1.182,2.353-1.939.702-.714,1.321-1.449,1.858-2.207Zm-52.692-48.348c-.825-.535-1.692-.802-2.6-.802-1.238,0-2.559.356-3.963,1.07-1.403.713-2.765,1.582-4.086,2.608-1.28.98-2.456,2.028-3.53,3.142-1.073,1.07-1.878,1.962-2.414,2.675.165.045.433.067.805.067.866,0,1.857-.134,2.972-.401c1.114-.312,2.249-.691,3.405-1.137c1.197-.49,2.353-1.025,3.467-1.605c1.115-.624,2.106-1.248,2.972-1.872.909-.624,1.631-1.248,2.168-1.873.536-.624.804-1.203.804-1.738v-.134Z" clip-rule="evenodd" fill="#e80088" fill-rule="evenodd" stroke-linecap="round" stroke-linejoin="round" stroke-miterlimit="1.5"/></g>
<g id="eye_open" clip-rule="evenodd"><path d="M204.866,251.106c-3.528,3.935-1.592,18.437,1.484,21.355c7.121,1.249,14.975-1.263,23.748-4.499c0,0-6.272-8.321-13.665-13.815-4.321-3.211-11.567-3.041-11.567-3.041Z" clip-rule="evenodd" fill="#fff" fill-rule="evenodd" stroke-linecap="round" stroke-linejoin="round" stroke-miterlimit="1.5"/><path d="M209.34,250.691c3.319-.181,6.265,4.32,6.576,10.044.312,5.724-2.13,10.517-5.449,10.698-3.318.18-6.265-4.321-6.576-10.045-.311-5.723,2.131-10.517,5.449-10.697Z" clip-rule="evenodd" fill="url(#cuty_grad-fill)" fill-rule="evenodd" stroke-linecap="round" stroke-linejoin="round" stroke-miterlimit="1.5"/><ellipse rx="2.422" ry="5.407" transform="translate(209.493 261.112)" clip-rule="evenodd" fill="#3c0373" fill-rule="evenodd" stroke="#fff" stroke-width="0.3" stroke-linecap="round" stroke-linejoin="round" stroke-miterlimit="1.5"/><path d="M207.014,256.51c.75-1.431,1.495-1.222,1.993-.687.498.536.694,1.44.196,2.511-.349.804-1.339.996-2.189,2.459-.971-1.603-1.477-1.407-1.993-2.086-.741-.976-.542-2.348-.044-2.884.498-.535,1.445-.86,2.037.687Z" clip-rule="evenodd" fill="#fff" fill-rule="evenodd" stroke-linecap="round" stroke-linejoin="round" stroke-miterlimit="1.5"/><path d="M212.236,263.669c.45-.757.896-.646,1.194-.363.298.284.416.762.118,1.33-.209.425-.802.527-1.312,1.301-.582-.848-.885-.745-1.193-1.104-.444-.517-.325-1.243-.027-1.527.298-.283.866-.455,1.22.363Z" clip-rule="evenodd" fill="#fff" fill-rule="evenodd" stroke-linecap="round" stroke-linejoin="round" stroke-miterlimit="1.5"/><path d="M224.776,271.486c-5.261,1.371-10.784,1.421-15.808,1.301c8.695-1.303,13.703-2.684,18.481-5.665-1.428-1.71-2.288-2.531-5.122-5.387-2.756-2.778-6.878-6.676-11.222-8.284-4.773-1.767-9.708-1.071-10.929-.14.751-1.405,2.06-2.275,3.559-2.795-.976-1.263-1.651-2.962-1.457-5.079.008-.083-.007-.173.027-.249.038-.086.109-.277.181-.216.408.341.264.435.554,1.058c1.202,2.573,3.228,3.157,4.23,3.414-.252-.83-.363-1.762-.269-2.792.008-.083-.007-.173.027-.249.039-.086.109-.277.181-.217.408.341.264.436.555,1.058.626,1.341,1.476,2.141,2.288,2.637c1.32.096,2.326.289,2.653.395c3.198,1.041,6.319,2.42,9.938,5.393c6.402,3.195,8.37.514,8.795.056-.225.823-.835,2.934-4.448,4.106.19.225.389.469.593.728c3.059,1.542,7.63,1.891,8.895.65-.438,1.193-2.942,2.644-6.072,3.318.013.021.027.042.041.063c1.315.792,3.169,1.522,5.214,1.664c2.741.19,4.468-.781,4.804-.937-.004.005-2.244,3.905-8.681,4.794-1.164.161-2.2.181-3.038.145c1.31.998,3.084,1.904,4.744,1.675-.427.281-2.178,1.428-6.377.4-.959-.235-1.726-.523-2.337-.845Z" clip-rule="evenodd" fill="#3c0373" fill-rule="evenodd" stroke-linecap="round" stroke-linejoin="round" stroke-miterlimit="1.5"/></g>
<g id="eye_middle" opacity="0" clip-rule="evenodd"><path d="M230.098,267.962c0,0-5.464-7.027-12.309-9.725-6.715-2.646-14.812-.98-14.815.658-.011,5.449,1.462,11.75,3.376,13.566c7.121,1.249,14.975-1.263,23.748-4.499Z" clip-rule="evenodd" fill="#fff" fill-rule="evenodd" stroke-linecap="round" stroke-linejoin="round" stroke-miterlimit="1.5"/><path d="M215.435,257.489c.253,1.016.42,2.107.481,3.246.312,5.724-2.13,10.517-5.449,10.698-3.318.18-6.265-4.321-6.576-10.045-.067-1.233-.006-2.424.164-3.534c2.068-.957,6.789-1.503,11.38-.365Z" clip-rule="evenodd" fill="url(#eyQVHkU4FBK32-fill)" fill-rule="evenodd" stroke-linecap="round" stroke-linejoin="round" stroke-miterlimit="1.5"/><path d="M210.993,256.869c.561.99.922,2.524.922,4.243c0,2.985-1.086,5.407-2.422,5.407-1.337,0-2.422-2.422-2.422-5.407c0-1.672.341-3.169.876-4.161.941-.091,1.97-.125,3.046-.082Z" clip-rule="evenodd" fill="#3c0373" fill-rule="evenodd" stroke="#fff" stroke-width="0.3" stroke-linecap="round" stroke-linejoin="round" stroke-miterlimit="1.5"/><path d="M212.236,263.669c.45-.757.896-.646,1.194-.363.298.284.416.762.118,1.33-.209.425-.802.527-1.312,1.301-.582-.848-.885-.745-1.193-1.104-.444-.517-.325-1.243-.027-1.527.298-.283.866-.455,1.22.363Z" clip-rule="evenodd" fill="#fff" fill-rule="evenodd" stroke-linecap="round" stroke-linejoin="round" stroke-miterlimit="1.5"/><path d="M213.005,254.784c4.984.712,10.914,4.053,12.029,4.232c1.673.875,7.983-1.264,7.72-2.285-.619,2.953-2.29,3.621-4.035,4.323c2.954,1.107,6.643,1.25,7.759.155-.438,1.193-2.942,3.644-6.072,4.318l.041.063c2.879,2.044,8.535.648,8.535.648s-.761,2.984-7.198,3.873c-1.164.161-2.2.181-3.038.145c1.31.998,3.084,1.904,4.744,1.675-.427.281-2.178,1.428-6.377.4-.959-.235-1.726-.523-2.337-.845-5.261,1.371-10.784,1.421-15.808,1.301c8.695-1.303,13.703-2.684,18.481-5.665-1.428-1.71-1.97-2.109-5.303-4.362-3.711-2.508-9.604-4.993-15.075-3.43-7.349,2.1-8.942-.29-8.942-.29c1.917.301,3.634.001,5.067-1.146-2.199.08-3.953.065-5.549-2.67c0,0,4.061,2.495,6.515.835c1.306-.884,4.201-1.938,8.843-1.275Z" clip-rule="evenodd" fill="#3c0373" fill-rule="evenodd" stroke-linecap="round" stroke-linejoin="round" stroke-miterlimit="1.5"/></g><path id="eye_closed" d="M203.489,268.047c0,.067,7.162,1.48,11.68,1c5.776-.614,7.836-1.249,14.74-4.242c1.87,1.489,7.473,2.077,9.834.843-4.268,2.845-8.406,3.362-8.406,3.362s2.701,1.44,6.59,1.278c.008-.001-1.575.725-2.286.941-4.259,1.296-6.792.135-6.792.135.987,1.441,2.453,2.244,4.035,2.891c0,0-3.992.207-7.989-2.003.508,1.19,1.469,2.633,3.349,3.886-.135-.045-4.087-.97-6.434-3.915-5.02,1.081-12.034,1.634-14.765.607-.853,1.891-4.252,4.376-7.9,3.779-.43-.071,2.738-.398,4.823-4.567-2.005,2.549-7.2.68-7.922-.726c2.449.34,6.511-1.377,7.443-3.269Z" opacity="0" clip-rule="evenodd" fill="#3c0373" fill-rule="evenodd" stroke-linecap="round" stroke-linejoin="round" stroke-miterlimit="1.5"/>
<g clip-rule="evenodd"><path d="M335.152,370.6c3.638-5.738,7.247-4.902,9.662-2.753c2.416,2.148,3.367,5.778.951,10.075-1.691,3.222-6.491,3.995-10.613,9.865-4.71-6.43-7.163-5.647-9.662-8.37-3.593-3.915-2.63-9.422-.215-11.57c2.416-2.149,7.009-3.452,9.877,2.753Z" clip-rule="evenodd" fill="#e80088" fill-rule="evenodd" stroke-linecap="round" stroke-linejoin="round" stroke-miterlimit="1.5"/><circle r="2.585" transform="translate(335.145 360.854)" clip-rule="evenodd" fill="#e80088" fill-rule="evenodd" stroke-linecap="round" stroke-linejoin="round" stroke-miterlimit="1.5"/><circle r="1.292" transform="translate(335.145 365.712)" clip-rule="evenodd" fill="#e80088" fill-rule="evenodd" stroke-linecap="round" stroke-linejoin="round" stroke-miterlimit="1.5"/><path d="M326.438,369.471c1.538-1.621,3.758-2.014,4.954-.879c1.197,1.136.92,3.373-.618,4.994-1.538,1.62-3.758,2.014-4.954.878-1.197-1.135-.92-3.373.618-4.993Z" clip-rule="evenodd" fill="#fff" fill-rule="evenodd" stroke-linecap="round" stroke-linejoin="round" stroke-miterlimit="1.5"/><circle r="1.137" transform="translate(327.988 377.972)" clip-rule="evenodd" fill="#fff" fill-rule="evenodd" stroke-linecap="round" stroke-linejoin="round" stroke-miterlimit="1.5"/><path d="M333.698,359.248c.531-.56,1.297-.695,1.71-.303s.317,1.164-.214,1.723c-.53.56-1.297.696-1.71.304s-.317-1.165.214-1.724Z" clip-rule="evenodd" fill="#fff" fill-rule="evenodd" stroke-linecap="round" stroke-linejoin="round" stroke-miterlimit="1.5"/><path d="M334.422,364.908c.265-.279.648-.347.855-.151.206.196.158.582-.107.862-.266.279-.649.347-.855.151-.207-.196-.159-.582.107-.862Z" clip-rule="evenodd" fill="#fff" fill-rule="evenodd" stroke-linecap="round" stroke-linejoin="round" stroke-miterlimit="1.5"/></g>
<g id="bang" transform="translate(189.922058,126.611855) rotate(2.939695)"><path d="M165.67,238.421c-8.751-9.136-25.386-30.497-18.328-59.488c6.898-28.339,21.805-43.793,38.043-50.459.016-.007.031-.013.047-.019c20.949-15.96,30.882,74.193,29.224,71.411c7.157,17.861,21.007,28.567,34.305,35.737.556.357-23.384-2.774-44.625-16.361c3.571,3.244,7.818,6.439,12.832,9.271c11.492,6.492,19.044,6.033,21.173,6.433-2.707-.26-14.502,1.641-33.384-11.056-1.753-1.179-3.399-2.411-4.937-3.665c13.939,15.692,31.834,21.668,31.834,21.668s-30.151-1.241-47.191-24.186c-.252-.338-.498-.676-.741-1.012c2.892,8.205,8.774,16.662,23.809,25.622.145.087.145.085,1.821,1.062-6.265-2.783-14.342-6.698-21.016-13.201c5.184,9.067,10.743,15.286,10.743,15.286s-16.061-3.704-29.019-17.573c5.493,10.155,11.442,16.24,11.442,16.24s-19.03-13.443-26.588-31.17c2.881,10.977,7.563,20.411,11.949,26.586c1.733,1.897,3.008,3.126,3.447,3.61-.319-.341-1.291-1.204-2.677-2.555c1.864,2.483,3.651,4.347,5.195,5.457.109.079.22.155.329.233-2.409-1.573-5.059-4.301-7.687-7.871Zm-15.623-57.943c-6.911,25.081,5.478,45.151,13.864,55.422-4.822-7.278-9.364-17.202-11.952-27.79-2.145-8.772-3.033-18.179-1.912-27.632Z" transform="translate(-189.922058,-126.779372)" clip-rule="evenodd" fill="#3c0373" fill-rule="evenodd" stroke-linecap="round" stroke-linejoin="round" stroke-miterlimit="1.5"/></g>
<g id="ear_hair" transform="translate(267.764,237.394461) rotate(-3.060998)"><path d="M267.764,243.17c-5.033-1.949,70.499-10.296,70.499-10.296s3.566,26.65,24.727,34.106c12.189,1.459,24.847,6.325,31.95,15.435c1.853,2.377,4.029,6.267,5.767,10.812c3.062,8.005,3.151,13.707,3.213,14.866-.003-.017-1.035-8.789-7.513-18.548-1.399-2.107-3.868-5.799-9.17-9.067c8.233,6.935,12.257,15.926,11.227,17.56-.022.035-.049.068-.071.103c1.032-1.958-4.732-10.902-14.02-16.457c3.236,2.784,5.967,6.076,7.887,9.76c3.062,5.877,6.589,15.932,4.44,14.499-.085-.056-.078-.06-.181-.138.21.123.806.546.681-.4-.271-2.056-4.852-11.504-9.146-16.121-10.831-11.647-30.194-14.044-37.695-7.093-.202.187-.39.352-.568.499c2.314-.032,4.913.038,7.904.551c1.705.292,8.264,1.579,13.464,5.4.759.557,1.474,1.149,2.148,1.767c7.78,2.5,11.258,7.027,11.856,7.733-1.011-1.051-4.213-4.458-10.525-6.425c7.188,7.554,9.049,17.893,9.1,18.138-.057-.166-4.518-14.341-15.917-19.44-.412-.035-.833-.064-1.262-.085-10.45-.524-19.045,4.052-20.353,4.643-2.898,1.309-7.059,3.096-11.878,4.623-2.786,1.954-6.002,3.35-9.824,3.794-10.308,6.252-21.746,6.787-30.833-5.451-1.848-2.489-3.376-5.257-4.67-8.159-3.057-1.917-5.911-4.859-8.3-9.156-6.258-11.256-7.356-27.655-12.937-37.453Zm72.299,51.12c4.388-1.438,7.752-2.833,9.241-3.32c4.609-1.505,9.149-2.194,13.42-2.178-7.949-1.788-13.489.008-18.789.475-1.205,1.71-2.481,3.416-3.872,5.023Zm-24.918,8.408c-4.756-.138-9.463-1.124-13.735-3.425.561.547,1.152,1.062,1.775,1.543c4.525,3.486,9.573,3.429,13.86,2.279-.62-.11-1.253-.242-1.9-.397Zm-35.923-43.443c1.518,8.966,2.915,17.846,7.293,24.03-2.262-6.839-3.642-13.818-5.139-19.242-.7-1.565-1.415-3.162-2.154-4.788Z" transform="translate(-267.764,-237.394461)" clip-rule="evenodd" fill="#3c0373" fill-rule="evenodd" stroke-linecap="round" stroke-linejoin="round" stroke-miterlimit="1.5"/></g>
<g id="back_hair" transform="translate(360.613403,329.290223) rotate(0.774522)"><path d="M340.245,366.646c.086-.293,3.351-6.259,5.17-7.161c24.449-12.136,191.569-69.324,192.103-57.06c1.643,1.817,3.499,3.184,5.564,3.942c7.701,2.826,15.707-2.76,19.73-5.757-1.201,1.128-4.412,4.289-8.705,6.447c3.185-1.162,6.48-2.845,9.88-5.111-.883,2.353-4.026,19.749-22.141,23.345c5.923.466,12.03-.2,17.556-2.584c6.354-2.741,9.698-7.235,10.082-7.699-.645.937-7.731,13.103-28.379,13.035h-.176c-.423,3.687-1.477,7.134-3.02,9.725c1.743.175,2.783.013,2.785.014-1.169.584-2.428,1.055-3.755,1.416-.957,1.234-2.057,2.169-3.273,2.701-.116.051-.235.097-.351.147.037-.025,1.268-.646,2.457-2.563-1.645.358-3.377.557-5.155.603-.525.985-1.082,1.939-1.672,2.859.722.49,1.496.969,2.355,1.442c5.852-.341,11.266-2.587,15.405-6.726.591-.591.139.595-6.145,8.449-.283.354-.831.867-1.615,1.479c2.959.966,6.613,1.941,11.256,2.959-6.919,1.29-12.989,3.273-22.147,2.952-.219.084-.44.167-.663.249c3.174.962,6.844,1.428,11.063,1.074c2.029-.17,5.032-.47,7.898-.865.629-.756.549-.582.16-.022.758-.105,1.504-.217,2.22-.335c4.122-.68,5.292-1.232,5.652-1.371-.87.456-2.691,1.41-8.73,2.894-.582.785-1.244,1.65-1.637,2.123-1.161,1.392-1.146,1.24-2.304,2.688-10.642,13.302-20.784,20.728-30.026,23.985c1.872,1.38,3.873,2.675,6.008,3.871c13.75-6.287,24.333-17.546,26.51-19.756-2.309,2.866-10.09,12.863-21.311,20.432c9.364-3.892,16.506-9.844,17.858-11.443-5.827,9.941-12.002,17.88-18.317,24.071c6.072-2.329,13.305-7.251,20.388-17.799.084-.124.082-.125,1.026-1.569-4.264,8.965-12.09,22.789-29.453,26.686-.269.06-.528.116-.78.168-1.002.725-2.005,1.41-3.008,2.056l-.065.261c16.409-1.981,33.84-20.167,38.573-24.606-4.824,5.48-20.011,24.792-37.272,28.949-.835,2.583-6.358,20.458-24.082,26.821-7.224,2.593-15.478,2.541-23.177-.799-.617.974-1.317,1.943-2.114,2.891-3.602,5.253-9.611,11.603-18.855,14.701-10.614,3.557-22.703,1.574-31.5-7.381-8.137,3.221-17.849,3.003-26.116-3.105-3.28-1.009-6.207-2.552-8.814-4.506-3.792-1.667-7.414-4.096-10.66-7.44-4.588-4.728-8.744-14.834-11.367-26.571-4.206-3.739-8.117-8.796-10.952-15.401-.651-1.516-2.475-5.773-3.286-11.656-1.685-5.2-2.181-10.998-.676-16.149Zm55.436,83.061c4.738,1.652,9.763,1.607,14.463.335-1.353-.585-2.677-1.231-3.97-1.936-2.728.864-5.827,1.42-9.365,1.57-.379.016-.756.026-1.128.031ZM520.578,323.87c-1.046-.279-2.118-.588-3.215-.929c1.075,1.796,2.349,3.565,3.86,5.265c1.743,1.961,3.479,3.527,5.155,4.778-.622-2.525-1.361-5.182-2.161-7.731-1.254-.42-2.47-.882-3.639-1.383ZM400.561,444.556c-.395-.287-.786-.579-1.174-.877-5.345.312-10.442-.674-15.205-2.69c1.049,1.407,2.163,2.648,3.329,3.735c4.418.711,8.887.582,13.05-.168Zm105.94-28.546c-2.556,4.455-6.05,9.322-10.985,13.457c4.499-3.08,8.884-7.675,12.046-13.525-.353.03-.707.053-1.061.068Zm-44.478,24.007c-5.345,4.478-10.711,7.75-16.005,9.976c8.438-1.587,13.608-5.23,17.007-9.456-.335-.167-.669-.34-1.002-.52ZM343.97,382.79c1.501,3.74,3.492,6.92,5.129,8.729l.253.276c-1.006-2.264-1.98-4.962-2.657-7.992-1.096-4.901.032-17.488.032-17.488s-2.629,2.625-3.063,7.545c-.108,1.221-.368,4.334.306,8.93Zm133.615,55.402c-1.857.411-3.815.727-5.882.934c14.578,4.331,31.746-3.988,39.907-23.357l.218-.524c-.94.226-1.887.407-2.838.538-1.772,4.599-4.768,10.009-9.828,14.885-7.112,6.853-15.382,9.672-21.577,7.524Zm-44.58,15.279c-3.874.453-7.662.381-11.322-.146c10.083,6.445,23.689,5.097,34.342-3.617-3.414,2.137-7.761,3.913-13.339,5.052-3.335.681-6.748-.088-9.681-1.289Zm-57.024-17.17c-.995-.725-1.97-1.496-2.923-2.309c1.558,2.435,3.392,4.688,5.55,6.627-.919-1.324-1.797-2.761-2.627-4.318Zm-13.195-13.787c-.175-.251-.349-.503-.522-.756c1.746,5.369,3.879,9.806,6.27,12.625-2.356-3.632-4.249-7.677-5.748-11.869Zm-8.723-16.303c-1.115-2.784-2.092-5.638-2.922-8.529-1.478-1.24-3.01-2.692-4.445-4.35c1.891,5.158,4.47,9.422,7.367,12.879Zm181.194-78.518c-.759,3.037-1.712,5.953-2.875,8.69c1.628.647,3.096,1.018,4.329,1.224.584-1.459,1.055-3.359,1.213-5.815.074-1.163.069-2.475-.041-3.861-.877-.058-1.753-.137-2.626-.238Zm2.361-20.96c.001.601-.003,1.201-.012,1.802c2.027.41,4.119.6,6.274.545-2.041-.272-4.146-.998-6.262-2.347Zm-16.002,48.755c-2.91.684-6.055,1.139-9.366,1.218.321.304.652.594.993.866c8.157,6.526,22.7,2.059,13.087,6.065-4.424,1.844-8.277,3.044-11.664,3.707c10.936,1.576,22.883-2.588,30.68-12.145-1.734.421-3.805.884-6.283,1.39-6.898,1.406-12.691.649-17.447-1.101ZM403.98,446.839c-.68-.416-1.349-.847-2.009-1.294-3.452.885-7.17,1.361-10.963,1.286c3.297.65,8.034.966,12.972.008ZM528.176,342.407c-.071-.707-.179-1.503-.32-2.369-1.01-.061-2.028-.168-3.047-.32c1.115.942,2.181,1.832,3.367,2.689Z" transform="translate(-360.613401,-329.290223)" clip-rule="evenodd" fill="#3c0373" fill-rule="evenodd" stroke-linecap="round" stroke-linejoin="round" stroke-miterlimit="1.5"/></g> 
<circle r="318.48" transform="translate(335.763 351.38)" clip-rule="evenodd" fill="none" fill-rule="evenodd" stroke="url(#eyQVHkU4FBK48-stroke)" stroke-width="29.91" stroke-linecap="round" stroke-linejoin="round" stroke-miterlimit="1.5"/>
</svg>



